<?xml version="1.0" encoding="UTF-8"?>
<svg version="1.1" xmlns="http://www.w3.org/2000/svg" width="500" height="500">
<path d="M0 0 C2.39083402 1.13038137 4.77900221 2.17947639 7.21875 3.1953125 C7.94916504 3.50235107 8.67958008 3.80938965 9.43212891 4.12573242 C10.88428024 4.73397931 12.33963627 5.33464088 13.79833984 5.92700195 C15.57373423 6.67945981 17.30020959 7.54511786 19.015625 8.42578125 C19.345625 9.41578125 19.675625 10.40578125 20.015625 11.42578125 C18.86383759 11.42942688 17.71205017 11.43307251 16.52536011 11.43682861 C5.66654536 11.47378282 -5.19198591 11.53156038 -16.05058479 11.60968399 C-21.63301895 11.64917942 -27.21529487 11.68135789 -32.79785156 11.69677734 C-38.1861722 11.71193013 -43.57405788 11.74635166 -48.96218491 11.79409027 C-51.01700941 11.8089182 -53.071896 11.81682307 -55.12677383 11.8176651 C-58.00702441 11.82003221 -60.88607048 11.84709171 -63.76611328 11.87988281 C-64.61416031 11.87485245 -65.46220734 11.86982208 -66.33595276 11.86463928 C-71.65561244 11.95823407 -74.80896703 12.82115976 -78.984375 16.42578125 C-80.88386126 20.52867156 -81.35972574 22.39850555 -79.796875 26.67578125 C-77.70589445 29.86271189 -77.70589445 29.86271189 -74.984375 32.42578125 C-72.58393224 32.87186735 -72.58393224 32.87186735 -69.8493042 32.79327393 C-68.25539604 32.80162766 -68.25539604 32.80162766 -66.62928772 32.81015015 C-65.46352707 32.80093536 -64.29776642 32.79172058 -63.09667969 32.78222656 C-61.25483345 32.78529312 -61.25483345 32.78529312 -59.3757782 32.78842163 C-56.00555004 32.79091744 -52.63587156 32.78000971 -49.26571941 32.76289463 C-45.73625624 32.7478557 -42.20679698 32.74903247 -38.67730713 32.74822998 C-32.74559328 32.74453567 -26.81399502 32.72956516 -20.88232422 32.70703125 C-13.28156445 32.67821443 -5.68089804 32.66781262 1.91991043 32.66334915 C8.4646159 32.65935854 15.00930129 32.64685419 21.55399227 32.63300228 C23.65177044 32.62891498 25.74954791 32.62598328 27.84732819 32.62320709 C31.76836487 32.61737219 35.68934168 32.60267836 39.61035156 32.58691406 C40.76801529 32.5857962 41.92567902 32.58467834 43.11842346 32.58352661 C49.63485184 32.55866569 49.63485184 32.55866569 56.09954834 31.8414917 C59.35639389 31.37720187 60.91893052 32.04408037 63.8203125 33.46875 C70.74732219 36.4885318 78.41545668 38.07197049 85.765625 39.73828125 C91.10196575 41.04367643 96.15225368 42.87968185 101.265625 44.86328125 C102.01038086 45.15178955 102.75513672 45.44029785 103.52246094 45.73754883 C108.49955794 47.7132284 113.25449033 49.97519723 118.015625 52.42578125 C118.015625 53.08578125 118.015625 53.74578125 118.015625 54.42578125 C118.59441406 54.53664062 119.17320312 54.6475 119.76953125 54.76171875 C126.5061529 56.75341559 131.64718071 62.47996671 135.015625 68.42578125 C139.73334924 77.53586943 139.16669442 88.2689615 136.703125 98.05078125 C134.97842161 102.59107817 133.26925336 104.40115571 128.890625 106.48828125 C126.94838864 107.18102077 124.98935147 107.82864312 123.015625 108.42578125 C122.20738281 108.71710938 121.39914062 109.0084375 120.56640625 109.30859375 C113.63040444 111.67027371 106.3064538 112.83781119 99.015625 113.42578125 C98.355625 113.09578125 97.695625 112.76578125 97.015625 112.42578125 C96.933125 113.27140625 96.850625 114.11703125 96.765625 114.98828125 C95.85828647 119.14691616 94.25021227 121.82160824 92.015625 125.42578125 C91.355625 125.42578125 90.695625 125.42578125 90.015625 125.42578125 C89.809375 125.98265625 89.603125 126.53953125 89.390625 127.11328125 C85.91883491 132.95220094 81.01052114 135.26281429 74.65625 136.91796875 C66.36896216 138.51167795 59.40428895 137.61934727 52.015625 133.42578125 C44.64056088 128.08841146 39.63368452 122.55848257 38.015625 113.42578125 C36.70621193 113.53236305 36.70621193 113.53236305 35.37034607 113.64109802 C25.20673496 114.40138142 15.11436915 114.55730353 4.92578125 114.5234375 C3.24328148 114.52156659 1.56078116 114.52014588 -0.12171936 114.51914978 C-4.49618094 114.5153775 -8.87060798 114.50559409 -13.24505615 114.4944458 C-17.73042331 114.48411627 -22.21579619 114.47962773 -26.70117188 114.47460938 C-35.46225523 114.46396567 -44.22331079 114.44695495 -52.984375 114.42578125 C-53.24992187 115.11285156 -53.51546875 115.79992187 -53.7890625 116.5078125 C-54.14226562 117.40886719 -54.49546875 118.30992187 -54.859375 119.23828125 C-55.20742187 120.13160156 -55.55546875 121.02492188 -55.9140625 121.9453125 C-56.984375 124.42578125 -56.984375 124.42578125 -58.984375 127.42578125 C-59.644375 127.42578125 -60.304375 127.42578125 -60.984375 127.42578125 C-60.984375 128.08578125 -60.984375 128.74578125 -60.984375 129.42578125 C-61.644375 129.42578125 -62.304375 129.42578125 -62.984375 129.42578125 C-62.984375 130.08578125 -62.984375 130.74578125 -62.984375 131.42578125 C-64.37514801 132.24691302 -65.77226393 133.0573062 -67.171875 133.86328125 C-68.33783203 134.54197266 -68.33783203 134.54197266 -69.52734375 135.234375 C-75.79882297 138.27539433 -83.32263269 138.435752 -89.97265625 136.6015625 C-93.96923434 135.17761613 -97.44429262 133.78583617 -100.984375 131.42578125 C-100.984375 130.76578125 -100.984375 130.10578125 -100.984375 129.42578125 C-102.304375 129.09578125 -103.624375 128.76578125 -104.984375 128.42578125 C-104.984375 127.43578125 -104.984375 126.44578125 -104.984375 125.42578125 C-105.644375 125.42578125 -106.304375 125.42578125 -106.984375 125.42578125 C-109.59546357 121.67943678 -111.21565507 117.60863145 -112.984375 113.42578125 C-114.15355469 113.4721875 -115.32273438 113.51859375 -116.52734375 113.56640625 C-118.0754952 113.60393719 -119.62367439 113.64033594 -121.171875 113.67578125 C-121.94080078 113.70929688 -122.70972656 113.7428125 -123.50195312 113.77734375 C-127.54556321 113.84676195 -129.5072145 113.72148635 -133.03515625 111.53515625 C-134.984375 109.42578125 -134.984375 109.42578125 -134.984375 107.42578125 C-135.9434375 106.96171875 -135.9434375 106.96171875 -136.921875 106.48828125 C-138.984375 105.42578125 -138.984375 105.42578125 -139.984375 104.42578125 C-140.11481858 102.63868755 -140.17566186 100.84646982 -140.20898438 99.05493164 C-140.23150269 97.90605972 -140.254021 96.75718781 -140.27722168 95.57350159 C-140.34813341 90.27975827 -140.40600581 84.9861978 -140.44433594 79.69213867 C-140.46650711 76.90504429 -140.50810505 74.11931125 -140.56738281 71.33276367 C-140.65272676 67.31278419 -140.67970068 63.29426207 -140.703125 59.2734375 C-140.73611694 58.03763443 -140.76910889 56.80183136 -140.80310059 55.52857971 C-140.78389307 47.15062708 -139.02360583 41.4627913 -132.984375 35.42578125 C-132.324375 35.42578125 -131.664375 35.42578125 -130.984375 35.42578125 C-130.7471875 34.843125 -130.51 34.26046875 -130.265625 33.66015625 C-128.7116944 30.95025288 -126.96508069 29.56047323 -124.484375 27.67578125 C-123.6903125 27.0621875 -122.89625 26.44859375 -122.078125 25.81640625 C-119.984375 24.42578125 -119.984375 24.42578125 -117.984375 24.42578125 C-117.984375 23.76578125 -117.984375 23.10578125 -117.984375 22.42578125 C-109.3441425 17.67624027 -100.83653275 13.09796968 -91.546875 9.73046875 C-87.04697925 8.08248062 -82.61443846 6.28397076 -78.171875 4.48828125 C-50.6528375 -6.5645748 -28.4548905 -13.7588767 0 0 Z M-101.984375 79.42578125 C-101.984375 80.08578125 -101.984375 80.74578125 -101.984375 81.42578125 C-102.59023437 81.66683594 -103.19609375 81.90789062 -103.8203125 82.15625 C-106.4472904 83.69734714 -107.21227828 85.0567569 -108.609375 87.73828125 C-109.01414063 88.49753906 -109.41890625 89.25679687 -109.8359375 90.0390625 C-112.0908825 94.72535975 -113.26464693 98.50990551 -113.609375 103.73828125 C-113.72152344 105.34123047 -113.72152344 105.34123047 -113.8359375 106.9765625 C-113.88492188 107.78480469 -113.93390625 108.59304688 -113.984375 109.42578125 C-113.324375 109.42578125 -112.664375 109.42578125 -111.984375 109.42578125 C-111.860625 107.47671875 -111.860625 107.47671875 -111.734375 105.48828125 C-111.16613701 100.26708005 -109.33893651 96.0727083 -106.984375 91.42578125 C-106.65308594 90.70003906 -106.32179688 89.97429687 -105.98046875 89.2265625 C-104.984375 87.42578125 -104.984375 87.42578125 -102.984375 86.42578125 C-102.984375 85.76578125 -102.984375 85.10578125 -102.984375 84.42578125 C-101.004375 83.76578125 -99.024375 83.10578125 -96.984375 82.42578125 C-96.984375 81.76578125 -96.984375 81.10578125 -96.984375 80.42578125 C-94.06845042 79.80725179 -91.19210144 79.32014478 -88.234375 78.92578125 C-85.13893596 78.77746343 -85.13893596 78.77746343 -83.984375 77.42578125 C-76.58339046 77.66073314 -71.2867625 79.59352304 -64.984375 83.42578125 C-64.24703125 83.83957031 -63.5096875 84.25335938 -62.75 84.6796875 C-54.93634249 90.0699362 -53.90457975 99.70177407 -51.984375 108.42578125 C-51.654375 108.42578125 -51.324375 108.42578125 -50.984375 108.42578125 C-50.23799986 99.85076021 -51.90254211 93.96259411 -55.984375 86.42578125 C-56.644375 86.42578125 -57.304375 86.42578125 -57.984375 86.42578125 C-57.984375 85.76578125 -57.984375 85.10578125 -57.984375 84.42578125 C-71.26991898 74.23939671 -87.06681749 71.09519719 -101.984375 79.42578125 Z M63.015625 75.42578125 C65.83092182 76.98225592 67.31562206 77.45164307 70.640625 77.73828125 C78.4464169 78.59590084 85.27214376 82.76713878 90.546875 88.46484375 C94.04513353 93.13539105 96.2681889 98.63315147 97.015625 104.42578125 C97.675625 104.09578125 98.335625 103.76578125 99.015625 103.42578125 C98.36290944 99.90872167 97.50169476 96.53253048 96.453125 93.11328125 C96.18371094 92.23027344 95.91429687 91.34726562 95.63671875 90.4375 C95.43175781 89.77363281 95.22679687 89.10976563 95.015625 88.42578125 C94.355625 88.42578125 93.695625 88.42578125 93.015625 88.42578125 C92.809375 87.86890625 92.603125 87.31203125 92.390625 86.73828125 C89.0617411 81.13970378 83.74660104 78.38711972 77.828125 76.140625 C72.91677488 74.89232351 68.04132226 75.11491338 63.015625 75.42578125 Z M57.015625 76 C56.355625 76.36738281 55.695625 76.73476563 55.015625 77.11328125 C54.3246875 77.49613281 53.63375 77.87898438 52.921875 78.2734375 C50.81907167 79.54459935 48.83109782 80.76159783 47.015625 82.42578125 C47.015625 83.08578125 47.015625 83.74578125 47.015625 84.42578125 C46.355625 84.42578125 45.695625 84.42578125 45.015625 84.42578125 C45.015625 85.08578125 45.015625 85.74578125 45.015625 86.42578125 C44.355625 86.42578125 43.695625 86.42578125 43.015625 86.42578125 C41.365625 89.39578125 39.715625 92.36578125 38.015625 95.42578125 C39.005625 95.42578125 39.995625 95.42578125 41.015625 95.42578125 C41.510625 94.41515625 42.005625 93.40453125 42.515625 92.36328125 C47.23606592 84.20979238 54.28368194 80.30660673 63.015625 77.42578125 C60.20660089 75.61069797 60.20660089 75.61069797 57.015625 76 Z M-94.984375 92.42578125 C-94.984375 93.08578125 -94.984375 93.74578125 -94.984375 94.42578125 C-95.644375 94.42578125 -96.304375 94.42578125 -96.984375 94.42578125 C-100.7091773 99.78949656 -101.84292125 104.91023851 -100.984375 111.42578125 C-99.68136204 115.27405786 -98.46090955 118.57973773 -94.84375 120.65234375 C-94.23015625 120.90757812 -93.6165625 121.1628125 -92.984375 121.42578125 C-92.984375 122.08578125 -92.984375 122.74578125 -92.984375 123.42578125 C-86.75802847 126.03113192 -81.62119717 127.11353909 -74.984375 125.42578125 C-73.63244516 124.79768259 -72.29272722 124.14022977 -70.984375 123.42578125 C-70.984375 122.76578125 -70.984375 122.10578125 -70.984375 121.42578125 C-70.324375 121.42578125 -69.664375 121.42578125 -68.984375 121.42578125 C-64.84020265 117.2690508 -63.55810588 112.6795588 -63.296875 106.92578125 C-63.52926165 101.5055197 -64.50376963 98.05725395 -68.15234375 94.015625 C-73.16203659 89.66819433 -78.06521032 87.74132916 -84.73046875 88.01953125 C-88.61007951 88.71880251 -91.59225792 90.45218586 -94.984375 92.42578125 Z M51.43359375 97.390625 C48.19735427 102.0354756 48.29467195 107.9694775 49.015625 113.42578125 C51.20681892 118.96043486 54.61923662 122.83136376 60.015625 125.42578125 C66.42913314 127.17161333 72.12381318 126.49351034 78.015625 123.42578125 C81.91461824 120.51819868 84.91999528 117.24655203 86.015625 112.42578125 C86.81350262 105.23241583 85.69264623 100.63075457 82.015625 94.42578125 C81.355625 94.42578125 80.695625 94.42578125 80.015625 94.42578125 C80.015625 93.76578125 80.015625 93.10578125 80.015625 92.42578125 C68.50715234 85.72994261 60.19638331 87.35113763 51.43359375 97.390625 Z M38.015625 96.42578125 C36.21332332 100.25567231 35.81940259 103.20699933 36.015625 107.42578125 C36.675625 107.09578125 37.335625 106.76578125 38.015625 106.42578125 C38.48314288 104.0697889 38.48314288 104.0697889 38.640625 101.36328125 C38.71539062 100.44417969 38.79015625 99.52507812 38.8671875 98.578125 C38.91617188 97.86785156 38.96515625 97.15757812 39.015625 96.42578125 C38.685625 96.42578125 38.355625 96.42578125 38.015625 96.42578125 Z " fill="#388D43" transform="translate(262.984375,193.57421875)"/>
<path d="M0 0 C2.83392926 -0.08174796 5.66544819 -0.14084985 8.5 -0.1875 C9.29148438 -0.21263672 10.08296875 -0.23777344 10.8984375 -0.26367188 C18.41998602 -0.35614993 24.79432811 1.53967333 31 6 C31 6.66 31 7.32 31 8 C31.66 8 32.32 8 33 8 C36.09293072 12.83270425 37.11097633 15.18067893 37 21 C37.61015174 20.99631283 38.22030348 20.99262566 38.84894466 20.98882675 C53.72319273 20.90033273 68.59741525 20.83422103 83.47186184 20.79275131 C90.66517554 20.77216168 97.85831307 20.74411048 105.05151367 20.69824219 C111.32409335 20.65826355 117.59654538 20.63254104 123.86924893 20.62364602 C127.18798708 20.61844973 130.50627691 20.60418676 133.82491875 20.57707977 C137.53771314 20.54796452 141.24975595 20.54404758 144.96264648 20.54589844 C146.05237762 20.53151733 147.14210876 20.51713623 148.26486206 20.50231934 C158.21611428 20.55585628 165.32256082 23.79270874 173 30 C173 30.66 173 31.32 173 32 C173.66 32 174.32 32 175 32 C175.81498562 33.6029053 176.62689927 35.20737278 177.4375 36.8125 C178.11619141 38.15248047 178.11619141 38.15248047 178.80859375 39.51953125 C182.21010654 46.60136935 182.20137297 55.68764812 180.10546875 63.2109375 C179.16201934 65.53789045 178.17034371 67.7794818 177 70 C176.34 70 175.68 70 175 70 C174.73703125 70.59683594 174.4740625 71.19367188 174.203125 71.80859375 C172.94142045 74.10669847 171.7419273 75.38012897 169.75 77.0625 C169.18796875 77.54847656 168.6259375 78.03445312 168.046875 78.53515625 C161.21650934 83.42329961 155.22002934 83.55474089 147.0390625 83.765625 C145.7557605 83.80864243 144.4724585 83.85165985 143.15026855 83.89598083 C139.68961096 84.00998596 136.22869015 84.10453845 132.7673111 84.19363022 C130.62629543 84.24996591 128.4854903 84.31151492 126.34466553 84.37466431 C108.59931745 84.89400646 90.87580297 85.1791323 73.125 84.6875 C72.28366516 84.66457886 71.44233032 84.64165771 70.57550049 84.61804199 C57.22652595 84.22652595 57.22652595 84.22652595 56 83 C55.92794489 81.31391034 55.91613932 79.62499341 55.9375 77.9375 C55.94652344 77.01839844 55.95554687 76.09929687 55.96484375 75.15234375 C55.97644531 74.44207031 55.98804688 73.73179687 56 73 C60.68053524 71.80053618 65.18534644 71.89352389 69.9777832 71.94995117 C70.87274506 71.95623032 71.76770691 71.96250946 72.68978882 71.96897888 C74.62899105 71.9828043 76.56817917 71.9987342 78.50734901 72.01653099 C81.58059626 72.04322775 84.65377089 72.06106144 87.72709656 72.07600403 C96.46394948 72.11869469 105.20065882 72.16634988 113.93725586 72.24682617 C119.28575574 72.29544773 124.63405582 72.32437246 129.98274803 72.34057045 C132.01646964 72.35044616 134.05016983 72.36762301 136.08376503 72.39235497 C138.93409986 72.42624642 141.7835212 72.4349957 144.6340332 72.43823242 C145.88353508 72.46216064 145.88353508 72.46216064 147.15827942 72.48657227 C153.81130533 72.45227436 158.9954437 70.59976788 164.05859375 66.21875 C164.51363281 65.6515625 164.96867188 65.084375 165.4375 64.5 C165.91058594 63.9328125 166.38367188 63.365625 166.87109375 62.78125 C169.67803314 58.35230758 169.3899945 53.06992856 169 48 C168.08742694 45.21433941 168.08742694 45.21433941 167 43 C167 42.01 167 41.02 167 40 C166.34 40 165.68 40 165 40 C165 39.34 165 38.68 165 38 C164.401875 37.71125 163.80375 37.4225 163.1875 37.125 C161 36 161 36 158 34 C154.61312743 33.11843721 151.44714819 32.87599662 147.95695496 32.87974548 C146.96562561 32.87837082 145.97429626 32.87699615 144.95292664 32.87557983 C143.33883659 32.88097275 143.33883659 32.88097275 141.69213867 32.88647461 C140.55024078 32.88632858 139.4083429 32.88618256 138.23184204 32.8860321 C134.46053157 32.88672832 130.68927059 32.89450715 126.91796875 32.90234375 C124.30194628 32.90420896 121.68592346 32.90563238 119.06990051 32.90663147 C112.88997222 32.90973644 106.71006167 32.91793859 100.53014117 32.92798096 C93.49267671 32.939168 86.45521138 32.94465907 79.41774023 32.94967639 C64.94515101 32.9601219 50.47257575 32.97770519 36 33 C35.3915625 34.10730469 34.783125 35.21460938 34.15625 36.35546875 C31.55414514 41.09107908 27.92810798 43.86627209 23 46 C15.4383678 47.31831088 7.64816143 47.12012819 0 47 C-0.33 45.35 -0.66 43.7 -1 42 C-2.43049683 41.96241577 -2.43049683 41.96241577 -3.88989258 41.92407227 C-7.42909107 41.82987929 -10.96809875 41.72968769 -14.50708008 41.62768555 C-16.03861018 41.58438167 -17.57018715 41.54270333 -19.10180664 41.50268555 C-21.30369182 41.44487268 -23.50534211 41.38121031 -25.70703125 41.31640625 C-26.39150833 41.29969376 -27.07598541 41.28298126 -27.78120422 41.26576233 C-30.77120104 41.1726445 -33.14062311 40.95312563 -36 40 C-37 37 -37 37 -35.9375 34.375 C-33.38682815 31.24836999 -31.95422202 31.41239814 -28 31 C-25.76270665 30.98504887 -23.52450158 31.02880498 -21.2890625 31.12109375 C-19.42314453 31.19360352 -19.42314453 31.19360352 -17.51953125 31.26757812 C-16.23433594 31.32365234 -14.94914062 31.37972656 -13.625 31.4375 C-12.31660156 31.48970703 -11.00820312 31.54191406 -9.66015625 31.59570312 C-6.43987931 31.72498432 -3.21990484 31.86176102 0 32 C0 26.72 0 21.44 0 16 C-2.25199219 16.03480469 -4.50398438 16.06960937 -6.82421875 16.10546875 C-9.01520521 16.12889241 -11.20617751 16.14709289 -13.3972168 16.16479492 C-14.91518438 16.17984353 -16.43310876 16.20028738 -17.95092773 16.22631836 C-20.13796677 16.26287653 -22.32442896 16.27976523 -24.51171875 16.29296875 C-26.48338013 16.31653442 -26.48338013 16.31653442 -28.49487305 16.34057617 C-32.17309761 15.98318095 -34.04585553 15.15411544 -37 13 C-36.6875 10.625 -36.6875 10.625 -36 8 C-32.35695136 5.57130091 -29.69277661 5.74324325 -25.48828125 5.8046875 C-24.76005661 5.8075174 -24.03183197 5.81034729 -23.28153992 5.81326294 C-20.95835863 5.82444743 -18.63556453 5.84954834 -16.3125 5.875 C-14.7363337 5.88503206 -13.16016135 5.89415752 -11.58398438 5.90234375 C-7.72250733 5.92438104 -3.86131929 5.95889859 0 6 C-0.2784375 5.071875 -0.2784375 5.071875 -0.5625 4.125 C-1 2 -1 2 0 0 Z " fill="#3D8E47" transform="translate(135,139)"/>
<path d="M0 0 C2.61273988 1.30636994 2.97236124 2.28409758 4 5 C4.03477735 6.99969761 4.03829667 9.00036669 4 11 C4.61015174 10.99631283 5.22030348 10.99262566 5.84894466 10.98882675 C20.72319273 10.90033273 35.59741525 10.83422103 50.47186184 10.79275131 C57.66517554 10.77216168 64.85831307 10.74411048 72.05151367 10.69824219 C78.32409335 10.65826355 84.59654538 10.63254104 90.86924893 10.62364602 C94.18798708 10.61844973 97.50627691 10.60418676 100.82491875 10.57707977 C104.53771314 10.54796452 108.24975595 10.54404758 111.96264648 10.54589844 C113.05237762 10.53151733 114.14210876 10.51713623 115.26486206 10.50231934 C125.21611428 10.55585628 132.32256082 13.79270874 140 20 C140 20.66 140 21.32 140 22 C140.66 22 141.32 22 142 22 C142.81498562 23.6029053 143.62689927 25.20737278 144.4375 26.8125 C144.88996094 27.70582031 145.34242188 28.59914062 145.80859375 29.51953125 C149.21010654 36.60136935 149.20137297 45.68764812 147.10546875 53.2109375 C146.16201934 55.53789045 145.17034371 57.7794818 144 60 C143.34 60 142.68 60 142 60 C141.73703125 60.59683594 141.4740625 61.19367188 141.203125 61.80859375 C139.94142045 64.10669847 138.7419273 65.38012897 136.75 67.0625 C136.18796875 67.54847656 135.6259375 68.03445312 135.046875 68.53515625 C128.21650934 73.42329961 122.22002934 73.55474089 114.0390625 73.765625 C112.7557605 73.80864243 111.4724585 73.85165985 110.15026855 73.89598083 C106.68961096 74.00998596 103.22869015 74.10453845 99.7673111 74.19363022 C97.62629543 74.24996591 95.4854903 74.31151492 93.34466553 74.37466431 C75.59931745 74.89400646 57.87580297 75.1791323 40.125 74.6875 C38.86299774 74.65311829 38.86299774 74.65311829 37.57550049 74.61804199 C24.22652595 74.22652595 24.22652595 74.22652595 23 73 C22.92794489 71.31391034 22.91613932 69.62499341 22.9375 67.9375 C22.94652344 67.01839844 22.95554688 66.09929687 22.96484375 65.15234375 C22.97644531 64.44207031 22.98804688 63.73179687 23 63 C27.68053524 61.80053618 32.18534644 61.89352389 36.9777832 61.94995117 C37.87274506 61.95623032 38.76770691 61.96250946 39.68978882 61.96897888 C41.62899105 61.9828043 43.56817917 61.9987342 45.50734901 62.01653099 C48.58059626 62.04322775 51.65377089 62.06106144 54.72709656 62.07600403 C63.46394948 62.11869469 72.20065882 62.16634988 80.93725586 62.24682617 C86.28575574 62.29544773 91.63405582 62.32437246 96.98274803 62.34057045 C99.01646964 62.35044616 101.05016983 62.36762301 103.08376503 62.39235497 C105.93409986 62.42624642 108.7835212 62.4349957 111.6340332 62.43823242 C112.46703445 62.45418457 113.30003571 62.47013672 114.15827942 62.48657227 C120.81130533 62.45227436 125.9954437 60.59976788 131.05859375 56.21875 C131.51363281 55.6515625 131.96867188 55.084375 132.4375 54.5 C132.91058594 53.9328125 133.38367188 53.365625 133.87109375 52.78125 C136.67803314 48.35230758 136.3899945 43.06992856 136 38 C135.08742694 35.21433941 135.08742694 35.21433941 134 33 C134 32.01 134 31.02 134 30 C133.34 30 132.68 30 132 30 C132 29.34 132 28.68 132 28 C131.401875 27.71125 130.80375 27.4225 130.1875 27.125 C128 26 128 26 125 24 C120.48082988 22.72038575 115.86222768 22.78035409 111.19921875 22.68359375 C109.9446563 22.6524221 109.9446563 22.6524221 108.66474915 22.62062073 C106.00574579 22.55548966 103.34664772 22.4964105 100.6875 22.4375 C98.87954769 22.39428008 97.07160478 22.3506647 95.26367188 22.30664062 C90.84254378 22.19984584 86.42132088 22.09847675 82 22 C82 21.67 82 21.34 82 21 C83.16047852 20.9906543 84.32095703 20.98130859 85.51660156 20.97167969 C89.82574731 20.93178124 94.13417899 20.86602316 98.44287109 20.79248047 C100.30703553 20.76426994 102.1713196 20.74305579 104.03564453 20.72900391 C106.71709441 20.70757516 109.39710586 20.66092702 112.078125 20.609375 C112.91055725 20.60814636 113.7429895 20.60691772 114.60064697 20.60565186 C119.46837774 20.49826746 119.46837774 20.49826746 123.55761719 17.96191406 C124.27159668 16.9907666 124.27159668 16.9907666 125 16 C125.66 16.33 126.32 16.66 127 17 C126.505 16.01 126.505 16.01 126 15 C125.01 14.67 124.02 14.34 123 14 C123 13.34 123 12.68 123 12 C83.4 12 43.8 12 3 12 C1.75453595 9.50907189 2.2232422 8.58919267 3 6 C2.34 6 1.68 6 1 6 C0.67 4.02 0.34 2.04 0 0 Z " fill="#408E4A" transform="translate(168,149)"/>
<path d="M0 0 C10.25473227 0.32554706 18.57346311 4.53005966 26.08203125 11.48046875 C30.46952076 17.24407514 32 24.86415096 32 32 C32.99 32.495 32.99 32.495 34 33 C34 33.66 34 34.32 34 35 C35.98 35.66 37.96 36.32 40 37 C40 37.33 40 37.66 40 38 C37.03 38 34.06 38 31 38 C30.60167969 39.03060547 30.60167969 39.03060547 30.1953125 40.08203125 C29.84210938 40.98308594 29.48890625 41.88414062 29.125 42.8125 C28.60292969 44.15248047 28.60292969 44.15248047 28.0703125 45.51953125 C27 48 27 48 25 51 C24.34 51 23.68 51 23 51 C23 51.66 23 52.32 23 53 C22.34 53 21.68 53 21 53 C21 53.66 21 54.32 21 55 C19.60922699 55.82113177 18.21211107 56.63152495 16.8125 57.4375 C16.03519531 57.88996094 15.25789063 58.34242188 14.45703125 58.80859375 C8.18555203 61.84961308 0.66174231 62.00997075 -5.98828125 60.17578125 C-9.98485934 58.75183488 -13.45991762 57.36005492 -17 55 C-17 54.34 -17 53.68 -17 53 C-18.32 52.67 -19.64 52.34 -21 52 C-21 51.01 -21 50.02 -21 49 C-21.66 49 -22.32 49 -23 49 C-25.04169485 46.09451118 -26 44.59857954 -26 41 C-23.5625 41.375 -23.5625 41.375 -21 42 C-20.67 42.66 -20.34 43.32 -20 44 C-18.515 43.505 -18.515 43.505 -17 43 C-17.66 41.02 -18.32 39.04 -19 37 C-20.32 37 -21.64 37 -23 37 C-23.66 36.01 -24.32 35.02 -25 34 C-25.99 33.67 -26.98 33.34 -28 33 C-28.4530667 25.86419941 -27.36342901 21.27759133 -24 15 C-23.46375 13.989375 -22.9275 12.97875 -22.375 11.9375 C-21.92125 11.298125 -21.4675 10.65875 -21 10 C-20.34 10 -19.68 10 -19 10 C-19 9.34 -19 8.68 -19 8 C-16 6 -16 6 -13 6 C-13 5.34 -13 4.68 -13 4 C-9.0254058 2.19336627 -5.30982872 1.58016925 -1 1 C-0.67 0.67 -0.34 0.34 0 0 Z M-11 16 C-11 16.66 -11 17.32 -11 18 C-11.66 18 -12.32 18 -13 18 C-16.7248023 23.36371531 -17.85854625 28.48445726 -17 35 C-15.69698704 38.84827661 -14.47653455 42.15395648 -10.859375 44.2265625 C-10.24578125 44.48179687 -9.6321875 44.73703125 -9 45 C-9 45.66 -9 46.32 -9 47 C-2.77365347 49.60535067 2.36317783 50.68775784 9 49 C10.35192984 48.37190134 11.69164778 47.71444852 13 47 C13 46.34 13 45.68 13 45 C13.66 45 14.32 45 15 45 C19.14417235 40.84326955 20.42626912 36.25377755 20.6875 30.5 C20.45511335 25.07973845 19.48060537 21.6314727 15.83203125 17.58984375 C10.82233841 13.24241308 5.91916468 11.31554791 -0.74609375 11.59375 C-4.62570451 12.29302126 -7.60788292 14.02640461 -11 16 Z " fill="#3D8148" transform="translate(179,270)"/>
<path d="M0 0 C7.1747449 5.3494898 7.1747449 5.3494898 9 9 C8.01 9 7.02 9 6 9 C5.505 8.01 5.505 8.01 5 7 C3.38935371 10.65079826 2.55105909 14.0507432 2 18 C0.5 16.625 0.5 16.625 -1 15 C-1 14.34 -1 13.68 -1 13 C-1.66 13 -2.32 13 -3 13 C-3 12.34 -3 11.68 -3 11 C-9.72494759 8.65408805 -16.03225978 6.59475867 -23 9.0625 C-27.10439067 11.71325231 -31.0414423 15.16474802 -32.6484375 19.91796875 C-33.55378777 25.27965422 -34.2354092 30.85838822 -31 35.5 C-30.34 36.325 -29.68 37.15 -29 38 C-29 38.66 -29 39.32 -29 40 C-27.34750513 40.70105843 -25.67632417 41.35800351 -24 42 C-22.948125 42.4125 -21.89625 42.825 -20.8125 43.25 C-15.0945169 44.37484913 -9.91179305 43.66314158 -4.8046875 40.74609375 C-3.149199 39.5698256 -1.56568816 38.29339457 0 37 C-0.66 39.31 -1.32 41.62 -2 44 C-2.99 44 -3.98 44 -5 44 C-5 44.99 -5 45.98 -5 47 C-5.66 47 -6.32 47 -7 47 C-6.73323796 48.98491642 -6.73323796 48.98491642 -6 51 C-4.515 51.495 -4.515 51.495 -3 52 C-3 51.34 -3 50.68 -3 50 C-1.02 49.67 0.96 49.34 3 49 C-0.60703936 53.7547337 -5.38486093 54.87535399 -11 56 C-19.45319884 57.08609211 -26.5786763 55.19973348 -33.48828125 50.19921875 C-39.69041436 44.97156154 -43.56061457 40.12422354 -45 32 C-45.7427417 32.07001221 -46.4854834 32.14002441 -47.25073242 32.2121582 C-59.94444062 33.23784828 -72.64646164 33.1861011 -85.37475586 33.18530273 C-88.0233695 33.18678066 -90.67153301 33.19235352 -93.32006836 33.20581055 C-97.16785963 33.22400844 -101.01545145 33.22903151 -104.86328125 33.23046875 C-106.6474218 33.24124702 -106.6474218 33.24124702 -108.46760559 33.25224304 C-110.10653023 33.2476281 -110.10653023 33.2476281 -111.77856445 33.24291992 C-113.22293633 33.24505745 -113.22293633 33.24505745 -114.69648743 33.24723816 C-117 33 -117 33 -119 31 C-114.34957992 30.24647796 -109.94661188 29.89567348 -105.23852539 29.97827148 C-103.93770523 29.99836777 -102.63688507 30.01846405 -101.29664612 30.03916931 C-99.89698049 30.06635752 -98.49731725 30.09366849 -97.09765625 30.12109375 C-95.65035293 30.14542866 -94.20304124 30.16927046 -92.75572205 30.19264221 C-88.96632272 30.25514816 -85.17707358 30.32430759 -81.38781738 30.39489746 C-77.51317114 30.46588552 -73.63841934 30.53051943 -69.76367188 30.59570312 C-62.1756644 30.72428305 -54.58780443 30.85989877 -47 31 C-47.01675781 30.23171875 -47.03351563 29.4634375 -47.05078125 28.671875 C-46.98884983 25.41332971 -46.11981726 23.06476304 -45 20 C-44.84015625 19.3296875 -44.6803125 18.659375 -44.515625 17.96875 C-42.43229214 9.97325631 -37.28298578 3.9851113 -30.55078125 -0.70703125 C-19.8423005 -6.84892021 -10.63397744 -6.27732589 0 0 Z " fill="#3D8148" transform="translate(346,275)"/>
<path d="M0 0 C2.39083402 1.13038137 4.77900221 2.17947639 7.21875 3.1953125 C7.94916504 3.50235107 8.67958008 3.80938965 9.43212891 4.12573242 C10.88428024 4.73397931 12.33963627 5.33464088 13.79833984 5.92700195 C15.57373423 6.67945981 17.30020959 7.54511786 19.015625 8.42578125 C19.510625 9.91078125 19.510625 9.91078125 20.015625 11.42578125 C-27.009375 11.92078125 -27.009375 11.92078125 -74.984375 12.42578125 C-74.984375 11.10578125 -74.984375 9.78578125 -74.984375 8.42578125 C-73.994375 8.09578125 -73.004375 7.76578125 -71.984375 7.42578125 C-71.984375 7.09578125 -71.984375 6.76578125 -71.984375 6.42578125 C-75.26488376 7.46594257 -78.39209618 8.60460633 -81.546875 9.98828125 C-84.984375 11.42578125 -84.984375 11.42578125 -87.609375 11.92578125 C-90.12558083 12.30198436 -90.12558083 12.30198436 -92.421875 14.05078125 C-95.69631409 15.80779735 -97.45966623 15.32745093 -100.984375 14.42578125 C-92.18148926 9.98221931 -83.31911046 6.0521933 -73.98828125 2.8515625 C-70.91962411 1.78403222 -67.90328939 0.61298984 -64.88671875 -0.59375 C-42.1457224 -9.66106432 -22.64813743 -10.95112034 0 0 Z " fill="#43924D" transform="translate(262.984375,193.57421875)"/>
<path d="M0 0 C1.07461739 0.00539291 1.07461739 0.00539291 2.17094421 0.01089478 C2.92211517 0.01074875 3.67328613 0.01060272 4.44721985 0.01045227 C6.94166404 0.01115153 9.43603448 0.01894452 11.9304657 0.02676392 C13.65539509 0.02862805 15.38032501 0.03005197 17.10525513 0.03105164 C21.65418448 0.03487719 26.20308211 0.04470779 30.7519989 0.05575562 C35.39025951 0.06596893 40.02852522 0.07054908 44.66679382 0.07559204 C53.77422967 0.08633003 62.88164192 0.1034069 71.98905945 0.12442017 C71.98905945 0.78442017 71.98905945 1.44442017 71.98905945 2.12442017 C73.30905945 2.45442017 74.62905945 2.78442017 75.98905945 3.12442017 C75.98905945 3.78442017 75.98905945 4.44442017 75.98905945 5.12442017 C75.37030945 5.22754517 74.75155945 5.33067017 74.11405945 5.43692017 C71.62379461 5.9996739 71.62379461 5.9996739 69.98905945 9.12442017 C67.44203935 9.38121489 65.14561093 9.44412843 62.60185242 9.37319946 C61.46024658 9.35922623 61.46024658 9.35922623 60.295578 9.3449707 C57.77368744 9.31052662 55.25274329 9.2546469 52.73124695 9.19863892 C50.98534677 9.17061406 49.23942472 9.14392278 47.4934845 9.11851501 C42.89331572 9.04797394 38.29366778 8.95926955 33.69389343 8.86685181 C29.0020971 8.77577647 24.31003536 8.70178147 19.6179657 8.62637329 C10.4079886 8.47582548 1.19847133 8.30609894 -8.01094055 8.12442017 C-5.79853788 0.01227703 -5.79853788 0.01227703 0 0 Z " fill="#378C42" transform="translate(219.0109405517578,160.87557983398438)"/>
<path d="M0 0 C2.61273988 1.30636994 2.97236124 2.28409758 4 5 C4.03477735 6.99969761 4.03829667 9.00036669 4 11 C4.61015174 10.99631283 5.22030348 10.99262566 5.84894466 10.98882675 C20.72319273 10.90033273 35.59741525 10.83422103 50.47186184 10.79275131 C57.66517554 10.77216168 64.85831307 10.74411048 72.05151367 10.69824219 C78.32409335 10.65826355 84.59654538 10.63254104 90.86924893 10.62364602 C94.18798708 10.61844973 97.50627691 10.60418676 100.82491875 10.57707977 C104.53771314 10.54796452 108.24975595 10.54404758 111.96264648 10.54589844 C113.05237762 10.53151733 114.14210876 10.51713623 115.26486206 10.50231934 C125.21611428 10.55585628 132.32256082 13.79270874 140 20 C140 20.66 140 21.32 140 22 C140.66 22 141.32 22 142 22 C142.81498562 23.6029053 143.62689927 25.20737278 144.4375 26.8125 C144.88996094 27.70582031 145.34242188 28.59914062 145.80859375 29.51953125 C148.10685097 34.30442742 148.08538127 37.7917426 148 43 C147.67 41.68 147.34 40.36 147 39 C146.01 39.495 146.01 39.495 145 40 C145 40.99 145 41.98 145 43 C143.68 43.33 142.36 43.66 141 44 C141.0309375 45.2065625 141.0309375 45.2065625 141.0625 46.4375 C141 49 141 49 140 50 C139.63557767 51.66014616 139.30027117 53.32706064 139 55 C137.02 55 135.04 55 133 55 C133.7425 53.2984375 133.7425 53.2984375 134.5 51.5625 C136.56824811 46.0341022 136.95102028 40.7341833 135 35.125 C134.67 34.42375 134.34 33.7225 134 33 C134 32.01 134 31.02 134 30 C133.34 30 132.68 30 132 30 C132 29.34 132 28.68 132 28 C131.401875 27.71125 130.80375 27.4225 130.1875 27.125 C128 26 128 26 125 24 C120.48082988 22.72038575 115.86222768 22.78035409 111.19921875 22.68359375 C109.9446563 22.6524221 109.9446563 22.6524221 108.66474915 22.62062073 C106.00574579 22.55548966 103.34664772 22.4964105 100.6875 22.4375 C98.87954769 22.39428008 97.07160478 22.3506647 95.26367188 22.30664062 C90.84254378 22.19984584 86.42132088 22.09847675 82 22 C82 21.67 82 21.34 82 21 C83.16047852 20.9906543 84.32095703 20.98130859 85.51660156 20.97167969 C89.82574731 20.93178124 94.13417899 20.86602316 98.44287109 20.79248047 C100.30703553 20.76426994 102.1713196 20.74305579 104.03564453 20.72900391 C106.71709441 20.70757516 109.39710586 20.66092702 112.078125 20.609375 C112.91055725 20.60814636 113.7429895 20.60691772 114.60064697 20.60565186 C119.46837774 20.49826746 119.46837774 20.49826746 123.55761719 17.96191406 C124.27159668 16.9907666 124.27159668 16.9907666 125 16 C125.66 16.33 126.32 16.66 127 17 C126.505 16.01 126.505 16.01 126 15 C125.01 14.67 124.02 14.34 123 14 C123 13.34 123 12.68 123 12 C83.4 12 43.8 12 3 12 C1.75453595 9.50907189 2.2232422 8.58919267 3 6 C2.34 6 1.68 6 1 6 C0.67 4.02 0.34 2.04 0 0 Z " fill="#3F8E4A" transform="translate(168,149)"/>
<path d="M0 0 C1.0607222 0.00007553 2.1214444 0.00015106 3.21430969 0.00022888 C4.91456551 0.00797081 4.91456551 0.00797081 6.64916992 0.01586914 C7.81848557 0.01728409 8.98780121 0.01869904 10.19255066 0.02015686 C13.92160619 0.02574746 17.65060134 0.0382983 21.37963867 0.05102539 C23.91023676 0.0560416 26.44083579 0.0606043 28.97143555 0.06469727 C35.1700238 0.07571382 41.36857692 0.09244266 47.56713867 0.11352539 C48.06213867 1.10352539 48.06213867 1.10352539 48.56713867 2.11352539 C47.59776367 2.23727539 46.62838867 2.36102539 45.62963867 2.48852539 C44.61901367 2.69477539 43.60838867 2.90102539 42.56713867 3.11352539 C42.23713867 3.77352539 41.90713867 4.43352539 41.56713867 5.11352539 C40.24713867 5.11352539 38.92713867 5.11352539 37.56713867 5.11352539 C37.56713867 6.43352539 37.56713867 7.75352539 37.56713867 9.11352539 C36.57713867 9.11352539 35.58713867 9.11352539 34.56713867 9.11352539 C34.56713867 9.77352539 34.56713867 10.43352539 34.56713867 11.11352539 C35.22713867 10.78352539 35.88713867 10.45352539 36.56713867 10.11352539 C45.9016938 9.61994083 55.2638075 10.39293542 64.56713867 11.11352539 C64.56713867 11.44352539 64.56713867 11.77352539 64.56713867 12.11352539 C45.85962636 12.92362093 27.22650657 13.21805712 8.50463867 12.73852539 C7.1663501 12.7063945 7.1663501 12.7063945 5.80102539 12.6736145 C3.27360226 12.61080815 0.74657432 12.53995485 -1.78051758 12.46508789 C-2.92346031 12.43524559 -2.92346031 12.43524559 -4.0894928 12.40480042 C-9.31622516 12.23016155 -9.31622516 12.23016155 -10.43286133 11.11352539 C-10.50491644 9.42743573 -10.516722 7.7385188 -10.49536133 6.05102539 C-10.48633789 5.13192383 -10.47731445 4.21282227 -10.46801758 3.26586914 C-10.45641602 2.5555957 -10.44481445 1.84532227 -10.43286133 1.11352539 C-6.89036646 0.30530704 -3.6304544 -0.00866457 0 0 Z " fill="#489657" transform="translate(201.432861328125,210.886474609375)"/>
<path d="M0 0 C7.1747449 5.3494898 7.1747449 5.3494898 9 9 C8.01 9 7.02 9 6 9 C5.505 8.01 5.505 8.01 5 7 C3.38935371 10.65079826 2.55105909 14.0507432 2 18 C0.5 16.625 0.5 16.625 -1 15 C-1 14.34 -1 13.68 -1 13 C-1.66 13 -2.32 13 -3 13 C-3 12.34 -3 11.68 -3 11 C-8.72329463 9.00350187 -13.61523612 7.86745399 -19.6875 8 C-24.77950713 8.11024643 -24.77950713 8.11024643 -27 7 C-27 7.66 -27 8.32 -27 9 C-28.65 9.33 -30.3 9.66 -32 10 C-32.5534764 7.92446352 -33 6.15634036 -33 4 C-30.69064913 1.37211797 -29.36016893 0.12005631 -26 -1 C-25.34 -1.99 -24.68 -2.98 -24 -4 C-15.38727562 -7.05670803 -7.57435883 -4.47120741 0 0 Z " fill="#357D41" transform="translate(346,275)"/>
<path d="M0 0 C2.5506282 1.45604724 3.34924091 2.49329175 5 5 C5 6.66666667 5 8.33333333 5 10 C4.13117188 9.96519531 3.26234375 9.93039062 2.3671875 9.89453125 C-6.23055653 9.6193267 -6.23055653 9.6193267 -14 13 C-14.66 13 -15.32 13 -16 13 C-16 13.66 -16 14.32 -16 15 C-16.66 15 -17.32 15 -18 15 C-18.185625 15.763125 -18.37125 16.52625 -18.5625 17.3125 C-20.56491617 21.05614763 -23.15476604 21.46190642 -27 23 C-27.33 23.99 -27.66 24.98 -28 26 C-29.32 26 -30.64 26 -32 26 C-31.85196071 18.67878439 -31.13251099 12.58020666 -26 7 C-25.34 7 -24.68 7 -24 7 C-24 6.34 -24 5.68 -24 5 C-21 3 -21 3 -18 3 C-18 2.34 -18 1.68 -18 1 C-12.06603895 -1.84520147 -6.33634587 -1.28187279 0 0 Z " fill="#367E41" transform="translate(184,273)"/>
<path d="M0 0 C0.75042068 0.0028299 1.50084137 0.00565979 2.27400208 0.00857544 C4.668508 0.01976188 7.06263856 0.04486322 9.45703125 0.0703125 C11.0813748 0.08034431 12.70572422 0.08946981 14.33007812 0.09765625 C18.31004025 0.11969613 22.28972213 0.1542151 26.26953125 0.1953125 C26.26953125 2.1753125 26.26953125 4.1553125 26.26953125 6.1953125 C23.62953125 6.5253125 20.98953125 6.8553125 18.26953125 7.1953125 C18.26953125 7.5253125 18.26953125 7.8553125 18.26953125 8.1953125 C14.20943218 8.61899446 10.14657495 9.00435086 6.08203125 9.3828125 C4.93154297 9.50333984 3.78105469 9.62386719 2.59570312 9.74804688 C1.48388672 9.84794922 0.37207031 9.94785156 -0.7734375 10.05078125 C-1.7946167 10.15028076 -2.8157959 10.24978027 -3.86791992 10.35229492 C-7.25187493 10.16671854 -8.99656773 9.13429612 -11.73046875 7.1953125 C-11.41796875 4.8203125 -11.41796875 4.8203125 -10.73046875 2.1953125 C-7.03888557 -0.26574295 -4.26423321 -0.06044543 0 0 Z " fill="#327B3D" transform="translate(109.73046875,144.8046875)"/>
<path d="M0 0 C1.04449911 3.13349732 0.93423645 3.98968256 0 7 C1.32 7 2.64 7 4 7 C4.04125 6.38125 4.0825 5.7625 4.125 5.125 C4.41375 4.42375 4.7025 3.7225 5 3 C8.0625 1.75 8.0625 1.75 11 1 C10.93039063 2.16015625 10.93039063 2.16015625 10.859375 3.34375 C10.62689497 10.05245951 10.79529608 15.51560359 15 21 C15.99 21.66 16.98 22.32 18 23 C18 23.66 18 24.32 18 25 C19.65 25.33 21.3 25.66 23 26 C23 26.33 23 26.66 23 27 C17.25 27.125 17.25 27.125 15 26 C13.45833358 27.37485532 13.45833358 27.37485532 12 29 C12 29.66 12 30.32 12 31 C12.66 31.66 13.32 32.32 14 33 C13.01 33.495 13.01 33.495 12 34 C11.34 33.67 10.68 33.34 10 33 C10 32.34 10 31.68 10 31 C8.68 30.67 7.36 30.34 6 30 C6 29.01 6 28.02 6 27 C5.34 27 4.68 27 4 27 C1.95830515 24.09451118 1 22.59857954 1 19 C3.4375 19.375 3.4375 19.375 6 20 C6.33 20.66 6.66 21.32 7 22 C7.99 21.67 8.98 21.34 10 21 C9.34 19.02 8.68 17.04 8 15 C6.68 15 5.36 15 4 15 C3.34 14.01 2.68 13.02 2 12 C1.01 11.67 0.02 11.34 -1 11 C-1.0270043 9.54176788 -1.04639787 8.08339325 -1.0625 6.625 C-1.07410156 5.81289063 -1.08570313 5.00078125 -1.09765625 4.1640625 C-1 2 -1 2 0 0 Z " fill="#42834C" transform="translate(152,292)"/>
<path d="M0 0 C2.61273988 1.30636994 2.97236124 2.28409758 4 5 C4.03477735 6.99969761 4.03829667 9.00036669 4 11 C4.61015174 10.99631283 5.22030348 10.99262566 5.84894466 10.98882675 C20.72319273 10.90033273 35.59741525 10.83422103 50.47186184 10.79275131 C57.66517554 10.77216168 64.85831307 10.74411048 72.05151367 10.69824219 C78.32409335 10.65826355 84.59654538 10.63254104 90.86924893 10.62364602 C94.18798708 10.61844973 97.50627691 10.60418676 100.82491875 10.57707977 C104.53771314 10.54796452 108.24975595 10.54404758 111.96264648 10.54589844 C113.05237762 10.53151733 114.14210876 10.51713623 115.26486206 10.50231934 C123.17230465 10.54486074 129.51492659 11.93993554 135.5625 17.25 C136.036875 17.8275 136.51125 18.405 137 19 C136.34 19.33 135.68 19.66 135 20 C134.67 19.34 134.34 18.68 134 18 C131.47266765 17.34444881 131.47266765 17.34444881 129 17 C129 17.66 129 18.32 129 19 C127.68 19 126.36 19 125 19 C124.67 20.32 124.34 21.64 124 23 C110.14 22.67 96.28 22.34 82 22 C82 21.67 82 21.34 82 21 C83.16047852 20.9906543 84.32095703 20.98130859 85.51660156 20.97167969 C89.82574731 20.93178124 94.13417899 20.86602316 98.44287109 20.79248047 C100.30703553 20.76426994 102.1713196 20.74305579 104.03564453 20.72900391 C106.71709441 20.70757516 109.39710586 20.66092702 112.078125 20.609375 C112.91055725 20.60814636 113.7429895 20.60691772 114.60064697 20.60565186 C119.46837774 20.49826746 119.46837774 20.49826746 123.55761719 17.96191406 C124.27159668 16.9907666 124.27159668 16.9907666 125 16 C125.66 16.33 126.32 16.66 127 17 C126.505 16.01 126.505 16.01 126 15 C125.01 14.67 124.02 14.34 123 14 C123 13.34 123 12.68 123 12 C83.4 12 43.8 12 3 12 C1.75453595 9.50907189 2.2232422 8.58919267 3 6 C2.34 6 1.68 6 1 6 C0.67 4.02 0.34 2.04 0 0 Z " fill="#679C6C" transform="translate(168,149)"/>
<path d="M0 0 C0 2.31 0 4.62 0 7 C-2.36316661 8.1815833 -3.80363242 8.12912509 -6.4375 8.1328125 C-7.33339844 8.13410156 -8.22929688 8.13539063 -9.15234375 8.13671875 C-10.09207031 8.13285156 -11.03179687 8.12898437 -12 8.125 C-12.90878906 8.12886719 -13.81757812 8.13273438 -14.75390625 8.13671875 C-20.89215549 8.12798724 -26.90552856 7.72545362 -33 7 C-33.33 5.68 -33.66 4.36 -34 3 C-30.03999173 1.15329208 -26.77474798 0.70585983 -22.421875 0.5859375 C-21.17921875 0.54726562 -19.9365625 0.50859375 -18.65625 0.46875 C-17.3671875 0.4378125 -16.078125 0.406875 -14.75 0.375 C-13.44546875 0.33632812 -12.1409375 0.29765625 -10.796875 0.2578125 C-1.95758929 0 -1.95758929 0 0 0 Z " fill="#347C3F" transform="translate(136,171)"/>
<path d="M0 0 C0.66 0 1.32 0 2 0 C4.42393646 7.57480143 2.44019827 13.22710966 -1 20 C-2.32 20 -3.64 20 -5 20 C-5 20.66 -5 21.32 -5 22 C-5.97850195 23.02104551 -6.97980427 24.0206121 -8 25 C-8.33 25.66 -8.66 26.32 -9 27 C-9.99 27 -10.98 27 -12 27 C-12.66 25.68 -13.32 24.36 -14 23 C-14.33 23 -14.66 23 -15 23 C-16.33568021 22.67619874 -17.66923011 22.34342449 -19 22 C-18.21625 21.566875 -17.4325 21.13375 -16.625 20.6875 C-13.78301625 19.10779753 -13.78301625 19.10779753 -12 16 C-9.375 15.8125 -9.375 15.8125 -7 16 C-6.31292445 13.50935112 -6 11.62113708 -6 9 C-5.34 9.33 -4.68 9.66 -4 10 C-4.061875 9.21625 -4.12375 8.4325 -4.1875 7.625 C-4.125625 6.75875 -4.06375 5.8925 -4 5 C-3.01 4.34 -2.02 3.68 -1 3 C-0.67 2.01 -0.34 1.02 0 0 Z " fill="#3B8D45" transform="translate(313,188)"/>
<path d="M0 0 C0.99 0.495 0.99 0.495 2 1 C3.71055318 1.09310234 5.4247637 1.12191771 7.1378479 1.12025452 C8.7701107 1.12231651 8.7701107 1.12231651 10.43534851 1.12442017 C11.63440323 1.12082489 12.83345795 1.11722961 14.06884766 1.11352539 C15.32735031 1.11367142 16.58585297 1.11381744 17.88249207 1.1139679 C21.33888916 1.11425548 24.79525174 1.10836508 28.2516408 1.10139394 C31.8617997 1.09515387 35.47195934 1.09455608 39.0821228 1.09336853 C45.92088714 1.09025715 52.75963554 1.08204634 59.59839284 1.07201904 C67.38305311 1.06085193 75.16771414 1.05534594 82.95238042 1.05032361 C98.96826295 1.03986358 114.98412944 1.02226785 131 1 C131 1.66 131 2.32 131 3 C127.53791728 3.78271243 124.34073264 4.12703346 120.79405212 4.13371277 C119.25262291 4.14011024 119.25262291 4.14011024 117.68005371 4.14663696 C116.56352417 4.14618378 115.44699463 4.14573059 114.29663086 4.14526367 C112.52027 4.15030159 112.52027 4.15030159 110.70802307 4.15544128 C107.46847444 4.16330268 104.22896432 4.16661814 100.9894073 4.16725707 C98.96465643 4.16796882 96.93991225 4.17010543 94.91516304 4.17275429 C87.84960632 4.18199635 80.78406843 4.18609034 73.71850586 4.18530273 C67.13432742 4.18470127 60.55023072 4.19526934 53.96607298 4.2110464 C48.30905234 4.22411847 42.65205846 4.22948682 36.99502283 4.22884732 C33.61798478 4.22859237 30.2410195 4.23144266 26.86399651 4.24202538 C23.1005861 4.25178947 19.33738821 4.24896164 15.57397461 4.24291992 C13.89614395 4.25134918 13.89614395 4.25134918 12.18441772 4.25994873 C10.64721825 4.253657 10.64721825 4.253657 9.07896423 4.24723816 C8.18947555 4.24778293 7.29998686 4.24832769 6.38354397 4.24888897 C3.83431437 3.98269915 2.19764929 3.28594777 0 2 C0 1.34 0 0.68 0 0 Z " fill="#5E8C64" transform="translate(186,225)"/>
<path d="M0 0 C2.83392926 -0.08174796 5.66544819 -0.14084985 8.5 -0.1875 C9.29148438 -0.21263672 10.08296875 -0.23777344 10.8984375 -0.26367188 C16.62130318 -0.33403498 20.75203857 0.70702602 26 3 C23.50935112 3.68707555 21.62113708 4 19 4 C19 3.34 19 2.68 19 2 C18.30519531 2.17402344 17.61039063 2.34804687 16.89453125 2.52734375 C13.67343131 3.05332633 10.93090738 2.88327655 7.6875 2.5625 C6.08455078 2.40974609 6.08455078 2.40974609 4.44921875 2.25390625 C3.64097656 2.17011719 2.83273438 2.08632812 2 2 C2 2.99 2 3.98 2 5 C3.32 5.33 4.64 5.66 6 6 C6 6.99 6 7.98 6 9 C6.66 9 7.32 9 8 9 C7.67 10.32 7.34 11.64 7 13 C5.35 13 3.7 13 2 13 C2 19.27 2 25.54 2 32 C1.34 32 0.68 32 0 32 C0 26.72 0 21.44 0 16 C-2.5059375 16.0309375 -2.5059375 16.0309375 -5.0625 16.0625 C-9.49733641 16.06822976 -13.6391754 15.77525771 -18 15 C-18 14.67 -18 14.34 -18 14 C-13.545 13.505 -13.545 13.505 -9 13 C-9 12.67 -9 12.34 -9 12 C-4.545 11.505 -4.545 11.505 0 11 C-0.185625 9.55625 -0.37125 8.1125 -0.5625 6.625 C-1.125 2.25 -1.125 2.25 0 0 Z " fill="#5B9765" transform="translate(135,139)"/>
<path d="M0 0 C0 3 0 3 -2 6 C-1.34 5.67 -0.68 5.34 0 5 C0.33 6.98 0.66 8.96 1 11 C1.99 11 2.98 11 4 11 C4.66 9.35 5.32 7.7 6 6 C6.66 6 7.32 6 8 6 C8 5.34 8 4.68 8 4 C9.32 4.33 10.64 4.66 12 5 C11.34 5 10.68 5 10 5 C9.73703125 5.59683594 9.4740625 6.19367188 9.203125 6.80859375 C6.30876775 12.08045874 0.5172855 15.91569214 -5 18 C-7.375 17.6875 -7.375 17.6875 -9 17 C-8.67 16.01 -8.34 15.02 -8 14 C-5.525 14.495 -5.525 14.495 -3 15 C-3.33 14.34 -3.66 13.68 -4 13 C-7.02934491 12.34227572 -7.02934491 12.34227572 -10 12 C-9.67 11.01 -9.34 10.02 -9 9 C-14.28 9 -19.56 9 -25 9 C-25 8.67 -25 8.34 -25 8 C-23.62328125 7.96132812 -23.62328125 7.96132812 -22.21875 7.921875 C-13.22581024 7.50623493 -6.43159367 6.80077881 0 0 Z " fill="#57975F" transform="translate(300,204)"/>
<path d="M0 0 C0.66 0.66 1.32 1.32 2 2 C1.01 2.8971875 1.01 2.8971875 0 3.8125 C-2.3373846 5.87501834 -2.3373846 5.87501834 -2 9 C-2.33 9.99 -2.66 10.98 -3 12 C-3.34227417 13.33106622 -3.67751743 14.66400079 -4 16 C-6.31 16.33 -8.62 16.66 -11 17 C-11 17.66 -11 18.32 -11 19 C-12.65 19.33 -14.3 19.66 -16 20 C-15.67 18.02 -15.34 16.04 -15 14 C-14.34 14 -13.68 14 -13 14 C-13 13.01 -13 12.02 -13 11 C-12.01 11 -11.02 11 -10 11 C-9.87625 10.21625 -9.7525 9.4325 -9.625 8.625 C-9 6 -9 6 -7 4 C-5.33333333 3.33333333 -3.66666667 2.66666667 -2 2 C-1.34 1.34 -0.68 0.68 0 0 Z " fill="#327D3E" transform="translate(354,308)"/>
<path d="M0 0 C2.1875 -0.5 2.1875 -0.5 5 0 C7.88348242 3.34328097 10 6.53746234 10 11 C9.34 11 8.68 11 8 11 C8 11.66 8 12.32 8 13 C6.35 13 4.7 13 3 13 C3 12.34 3 11.68 3 11 C2.4225 10.7525 1.845 10.505 1.25 10.25 C-1.3002997 8.83316683 -3.01785701 7.12372463 -5 5 C-4.67 4.01 -4.34 3.02 -4 2 C-2.68 2 -1.36 2 0 2 C0 1.34 0 0.68 0 0 Z " fill="#368C40" transform="translate(297,166)"/>
<path d="M0 0 C0.72822464 0.0028299 1.45644928 0.00565979 2.20674133 0.00857544 C4.52992262 0.01975993 6.85271672 0.04486084 9.17578125 0.0703125 C10.75194755 0.08034456 12.3281199 0.08947002 13.90429688 0.09765625 C17.76577392 0.11969354 21.62696196 0.15421109 25.48828125 0.1953125 C25.48828125 0.5253125 25.48828125 0.8553125 25.48828125 1.1953125 C12.12328125 1.6903125 12.12328125 1.6903125 -1.51171875 2.1953125 C-0.52171875 2.5253125 0.46828125 2.8553125 1.48828125 3.1953125 C1.48828125 4.8453125 1.48828125 6.4953125 1.48828125 8.1953125 C-1.14121671 9.91459963 -2.38362822 10.20576887 -5.57421875 9.9453125 C-8.51171875 9.1953125 -8.51171875 9.1953125 -11.51171875 7.1953125 C-11.19921875 4.8203125 -11.19921875 4.8203125 -10.51171875 2.1953125 C-6.86867011 -0.23338659 -4.20449536 -0.06144425 0 0 Z " fill="#3C8446" transform="translate(109.51171875,144.8046875)"/>
<path d="M0 0 C2.64 0 5.28 0 8 0 C8.33 0.66 8.66 1.32 9 2 C8.030625 2.12375 7.06125 2.2475 6.0625 2.375 C5.051875 2.58125 4.04125 2.7875 3 3 C2.67 3.66 2.34 4.32 2 5 C0.68 5 -0.64 5 -2 5 C-2 6.32 -2 7.64 -2 9 C-2.99 9 -3.98 9 -5 9 C-5 9.66 -5 10.32 -5 11 C-4.34 10.67 -3.68 10.34 -3 10 C6.33455512 9.50641544 15.69666882 10.27941003 25 11 C25 11.33 25 11.66 25 12 C13.78 12.33 2.56 12.66 -9 13 C-10 10 -10 10 -9 7 C-6 5 -6 5 -4 4 C-3.67 3.34 -3.34 2.68 -3 2 C-2.01 2 -1.02 2 0 2 C0 1.34 0 0.68 0 0 Z " fill="#60A374" transform="translate(241,211)"/>
<path d="M0 0 C0.66022156 0.02361099 1.32044312 0.04722198 2.00067139 0.07154846 C4.099644 0.14783435 6.19821449 0.23200778 8.296875 0.31640625 C9.72393897 0.36966215 11.15102228 0.42240229 12.578125 0.47460938 C16.06795233 0.60340124 19.55746298 0.73926644 23.046875 0.87890625 C23.046875 1.20890625 23.046875 1.53890625 23.046875 1.87890625 C22.22485596 1.9039624 21.40283691 1.92901855 20.5559082 1.95483398 C16.82358126 2.0710328 13.09149183 2.1936513 9.359375 2.31640625 C8.06580078 2.35572266 6.77222656 2.39503906 5.43945312 2.43554688 C4.19228516 2.47744141 2.94511719 2.51933594 1.66015625 2.5625 C-0.06013794 2.61748657 -0.06013794 2.61748657 -1.81518555 2.67358398 C-4.62305778 2.85730923 -7.21538314 3.24884445 -9.953125 3.87890625 C-9.623125 5.19890625 -9.293125 6.51890625 -8.953125 7.87890625 C0.946875 8.20890625 10.846875 8.53890625 21.046875 8.87890625 C21.046875 9.20890625 21.046875 9.53890625 21.046875 9.87890625 C16.68693433 9.90363325 12.32703086 9.92177906 7.96704102 9.93383789 C6.48396087 9.93886528 5.00088567 9.9456881 3.51782227 9.9543457 C1.38556699 9.96648107 -0.74662273 9.9721505 -2.87890625 9.9765625 C-4.16192627 9.98179932 -5.44494629 9.98703613 -6.7668457 9.99243164 C-9.953125 9.87890625 -9.953125 9.87890625 -12.953125 8.87890625 C-13.953125 5.87890625 -13.953125 5.87890625 -12.765625 3.25390625 C-9.42525908 -1.12312496 -5.19175513 -0.19799066 0 0 Z " fill="#5E8A66" transform="translate(111.953125,170.12109375)"/>
<path d="M0 0 C0.33 0 0.66 0 1 0 C1 1.98 1 3.96 1 6 C-8.26896061 6.76510008 -17.4663663 7.15911086 -26.765625 7.16796875 C-28.00624695 7.17129715 -29.2468689 7.17462555 -30.52508545 7.17805481 C-33.11649204 7.18307232 -35.70790497 7.18546476 -38.29931641 7.18530273 C-40.9547661 7.18677963 -43.60976542 7.19234133 -46.26513672 7.20581055 C-50.1195197 7.22401167 -53.97370354 7.22903183 -57.828125 7.23046875 C-59.61697113 7.24124702 -59.61697113 7.24124702 -61.44195557 7.25224304 C-63.08572174 7.2476281 -63.08572174 7.2476281 -64.76269531 7.24291992 C-65.7286261 7.24434494 -66.69455688 7.24576996 -67.6897583 7.24723816 C-70 7 -70 7 -72 5 C-67.34957992 4.24647796 -62.94661188 3.89567348 -58.23852539 3.97827148 C-56.93770523 3.99836777 -55.63688507 4.01846405 -54.29664612 4.03916931 C-52.89698049 4.06635752 -51.49731725 4.09366849 -50.09765625 4.12109375 C-48.65035293 4.14542866 -47.20304124 4.16927046 -45.75572205 4.19264221 C-41.96632272 4.25514816 -38.17707358 4.32430759 -34.38781738 4.39489746 C-30.51317114 4.46588552 -26.63841934 4.53051943 -22.76367188 4.59570312 C-15.1756644 4.72428305 -7.58780443 4.85989877 0 5 C0 3.35 0 1.7 0 0 Z " fill="#578C5E" transform="translate(299,301)"/>
<path d="M0 0 C0.66 0.33 1.32 0.66 2 1 C2 1.66 2 2.32 2 3 C2.99 3 3.98 3 5 3 C5.33611568 5.10372401 5.66879946 7.20799657 6 9.3125 C6.185625 10.48425781 6.37125 11.65601563 6.5625 12.86328125 C7 16 7 16 7 19 C5.35 19 3.7 19 2 19 C1.34 16.69 0.68 14.38 0 12 C-0.66 12 -1.32 12 -2 12 C-2.28571429 3.42857143 -2.28571429 3.42857143 0 0 Z " fill="#317C3D" transform="translate(350,281)"/>
<path d="M0 0 C0.66 0.33 1.32 0.66 2 1 C1.67 1.99 1.34 2.98 1 4 C0.236875 3.9175 -0.52625 3.835 -1.3125 3.75 C-2.199375 3.8325 -3.08625 3.915 -4 4 C-4.45375 4.639375 -4.9075 5.27875 -5.375 5.9375 C-7 8 -7 8 -10.5625 8.625 C-11.696875 8.74875 -12.83125 8.8725 -14 9 C-14.66 9.66 -15.32 10.32 -16 11 C-19.02253522 11.95153887 -22.02057762 12.79835422 -25.125 13.4375 C-27.19012762 13.95358407 -27.19012762 13.95358407 -29.375 15.625 C-32.6905945 17.36173998 -34.44660452 16.90900815 -38 16 C-28.90947611 11.41124272 -19.75002137 7.42010758 -10.1171875 4.10546875 C-7.59194302 3.20992466 -5.18234711 2.24024629 -2.75 1.125 C-1.8425 0.75375 -0.935 0.3825 0 0 Z " fill="#599561" transform="translate(200,192)"/>
<path d="M0 0 C8.85988141 0.54485902 8.85988141 0.54485902 11.859375 3.4921875 C14.05591098 6.59763492 13.671875 7.3205018 13.671875 11.0546875 C13.011875 11.0546875 12.351875 11.0546875 11.671875 11.0546875 C11.671875 10.3946875 11.671875 9.7346875 11.671875 9.0546875 C10.82625 9.0753125 9.980625 9.0959375 9.109375 9.1171875 C5.55294723 9.05252518 2.18093997 8.6161379 -1.328125 8.0546875 C-1.328125 6.38802083 -1.328125 4.72135417 -1.328125 3.0546875 C-1.988125 2.3946875 -2.648125 1.7346875 -3.328125 1.0546875 C-2.328125 0.0546875 -2.328125 0.0546875 0 0 Z " fill="#327C3C" transform="translate(175.328125,271.9453125)"/>
<path d="M0 0 C3.60188716 0.59087138 5.50125598 2.01332856 8.1875 4.4375 C8.88230469 5.05496094 9.57710938 5.67242187 10.29296875 6.30859375 C12 8 12 8 13 10 C12.01 10 11.02 10 10 10 C9.67 9.34 9.34 8.68 9 8 C7.38935371 11.65079826 6.55105909 15.0507432 6 19 C4.5 17.625 4.5 17.625 3 16 C3 15.34 3 14.68 3 14 C2.34 14 1.68 14 1 14 C1 13.34 1 12.68 1 12 C0.0925 11.731875 -0.815 11.46375 -1.75 11.1875 C-4.74566479 10.09293017 -6.54123555 8.95097614 -9 7 C-8.24074219 7.08378906 -7.48148437 7.16757812 -6.69921875 7.25390625 C-5.70535156 7.35574219 -4.71148437 7.45757812 -3.6875 7.5625 C-2.70136719 7.66691406 -1.71523438 7.77132813 -0.69921875 7.87890625 C2.09930347 8.16602527 2.09930347 8.16602527 5 7 C5.33 6.34 5.66 5.68 6 5 C4.68 4.34 3.36 3.68 2 3 C2 2.34 2 1.68 2 1 C1.34 0.67 0.68 0.34 0 0 Z " fill="#498552" transform="translate(342,274)"/>
<path d="M0 0 C0.66 1.32 1.32 2.64 2 4 C1.01 4.33 0.02 4.66 -1 5 C-1 5.99 -1 6.98 -1 8 C-1.66 8 -2.32 8 -3 8 C-3 8.66 -3 9.32 -3 10 C-3.66 10 -4.32 10 -5 10 C-5 12.97 -5 15.94 -5 19 C-4.34 19 -3.68 19 -3 19 C-3.33 19.99 -3.66 20.98 -4 22 C-4.07224788 24.20464406 -4.08381993 26.41146298 -4.0625 28.6171875 C-4.05871338 29.27018829 -4.05492676 29.92318909 -4.05102539 30.59597778 C-4.03481476 33.37721731 -4.00711947 36.15830688 -3.97949219 38.93945312 C-3.89721289 48.00749758 -4.13173647 56.96269457 -5 66 C-4.34 66.33 -3.68 66.66 -3 67 C-3.99 67 -4.98 67 -6 67 C-6.13952137 59.44580879 -6.24588318 51.89175251 -6.31087303 44.33656311 C-6.34207892 40.82758817 -6.38434793 37.31949988 -6.45263672 33.81103516 C-6.53079625 29.76977431 -6.55950591 25.72943272 -6.5859375 21.6875 C-6.61690521 20.4382373 -6.64787292 19.18897461 -6.67977905 17.90185547 C-6.68248106 10.86269798 -6.05139654 6.60990372 -1.29190063 1.26879883 C-0.86557343 0.85009521 -0.43924622 0.4313916 0 0 Z " fill="#5E9060" transform="translate(129,231)"/>
<path d="M0 0 C28.05 0.33 56.1 0.66 85 1 C85 1.33 85 1.66 85 2 C74.37761404 2.13067112 63.75522489 2.26107943 53.13283157 2.39115143 C48.20053195 2.45155608 43.26823347 2.51205155 38.3359375 2.57275391 C33.57677211 2.63132219 28.81760386 2.68965279 24.05843353 2.74781799 C22.24194993 2.77006042 20.42546738 2.79238876 18.6089859 2.81480408 C16.06647509 2.84616395 13.52396073 2.87721947 10.98144531 2.90820312 C9.85287613 2.92222923 9.85287613 2.92222923 8.70150757 2.9365387 C5.46724524 2.97566907 2.23457772 3 -1 3 C-0.67 2.01 -0.34 1.02 0 0 Z " fill="#418249" transform="translate(188,202)"/>
<path d="M0 0 C4.455 1.98 4.455 1.98 9 4 C9 4.66 9 5.32 9 6 C9.53625 6.0825 10.0725 6.165 10.625 6.25 C13.8352431 7.26376098 16.26292392 9.07160549 19 11 C17 12 17 12 13.625 11.5 C10.49901506 11.06882966 8.88604813 10.96102267 6 12 C5.67 13.32 5.34 14.64 5 16 C2.76448241 12.64672361 2.82716472 12.09256343 3.375 8.3125 C3.48585938 7.50425781 3.59671875 6.69601563 3.7109375 5.86328125 C3.80632812 5.24839844 3.90171875 4.63351563 4 4 C2.68 3.34 1.36 2.68 0 2 C0 1.34 0 0.68 0 0 Z " fill="#50995B" transform="translate(372,242)"/>
<path d="M0 0 C0.66 0.33 1.32 0.66 2 1 C1.071875 1.4021875 1.071875 1.4021875 0.125 1.8125 C-2.2995233 2.95556848 -2.2995233 2.95556848 -4 6 C-4.66 6 -5.32 6 -6 6 C-5.67 7.65 -5.34 9.3 -5 11 C-3.35 11 -1.7 11 0 11 C0 10.34 0 9.68 0 9 C1.65 9.33 3.3 9.66 5 10 C2.03716687 12.38672669 -0.94270509 14.7353371 -4 17 C-4.66 16.01 -5.32 15.02 -6 14 C-6.66 13.67 -7.32 13.34 -8 13 C-8 12.01 -8 11.02 -8 10 C-8.99 9.34 -9.98 8.68 -11 8 C-9.73427767 6.84852339 -8.46222094 5.70400686 -7.1875 4.5625 C-6.47980469 3.92441406 -5.77210938 3.28632813 -5.04296875 2.62890625 C-3 1 -3 1 0 0 Z " fill="#4E8E5E" transform="translate(319,273)"/>
<path d="M0 0 C1.65 0.33 3.3 0.66 5 1 C4.54738642 2.43931117 4.08767021 3.87638999 3.625 5.3125 C3.36976563 6.11300781 3.11453125 6.91351563 2.8515625 7.73828125 C2 10 2 10 0 13 C-0.66 13 -1.32 13 -2 13 C-2.33 13.99 -2.66 14.98 -3 16 C-3.66 14.68 -4.32 13.36 -5 12 C-4.34 11.34 -3.68 10.68 -3 10 C-3 9.01 -3 8.02 -3 7 C-2 5.66666667 -1 4.33333333 0 3 C0 2.01 0 1.02 0 0 Z " fill="#468252" transform="translate(355,306)"/>
<path d="M0 0 C0.66 0 1.32 0 2 0 C3.125 4.75 3.125 4.75 2 7 C1.34 7 0.68 7 0 7 C-0.0825 8.0725 -0.165 9.145 -0.25 10.25 C-1.07428346 14.37141729 -1.99095936 15.27982726 -5 18 C-4.9131724 15.87422093 -4.8050049 13.74930419 -4.6875 11.625 C-4.62949219 10.44164062 -4.57148438 9.25828125 -4.51171875 8.0390625 C-4.34285156 7.03617188 -4.17398437 6.03328125 -4 5 C-3.01 4.34 -2.02 3.68 -1 3 C-0.67 2.01 -0.34 1.02 0 0 Z " fill="#368C40" transform="translate(313,188)"/>
<path d="M0 0 C10.72655709 -0.10194194 21.31563078 -0.07419152 32 1 C32 1.33 32 1.66 32 2 C31.00419922 2.09087891 31.00419922 2.09087891 29.98828125 2.18359375 C23.45091919 2.79863507 23.45091919 2.79863507 17 4 C17 3.34 17 2.68 17 2 C11.72 2 6.44 2 1 2 C0.67 2.66 0.34 3.32 0 4 C0 2.68 0 1.36 0 0 Z " fill="#3B8443" transform="translate(192,212)"/>
<path d="M0 0 C1.32 0 2.64 0 4 0 C5.23076923 6.4 5.23076923 6.4 4.0625 9.4375 C3.711875 9.953125 3.36125 10.46875 3 11 C2.01 11 1.02 11 0 11 C-0.66 9.68 -1.32 8.36 -2 7 C-2.33 7 -2.66 7 -3 7 C-4.33568021 6.67619874 -5.66923011 6.34342449 -7 6 C-6.21625 5.566875 -5.4325 5.13375 -4.625 4.6875 C-1.78301625 3.10779753 -1.78301625 3.10779753 0 0 Z " fill="#368A42" transform="translate(301,204)"/>
<path d="M0 0 C2.83392926 -0.08174796 5.66544819 -0.14084985 8.5 -0.1875 C9.29148438 -0.21263672 10.08296875 -0.23777344 10.8984375 -0.26367188 C16.62130318 -0.33403498 20.75203857 0.70702602 26 3 C23.50935112 3.68707555 21.62113708 4 19 4 C19 3.34 19 2.68 19 2 C18.30519531 2.17402344 17.61039063 2.34804687 16.89453125 2.52734375 C13.67343131 3.05332633 10.93090738 2.88327655 7.6875 2.5625 C6.61886719 2.46066406 5.55023438 2.35882813 4.44921875 2.25390625 C3.64097656 2.17011719 2.83273438 2.08632812 2 2 C2 3.32 2 4.64 2 6 C1.34 6 0.68 6 0 6 C-1.125 2.25 -1.125 2.25 0 0 Z " fill="#8CB692" transform="translate(135,139)"/>
<path d="M0 0 C0.72822464 0.0028299 1.45644928 0.00565979 2.20674133 0.00857544 C4.52992262 0.01975993 6.85271672 0.04486084 9.17578125 0.0703125 C10.75194755 0.08034456 12.3281199 0.08947002 13.90429688 0.09765625 C17.76577392 0.11969354 21.62696196 0.15421109 25.48828125 0.1953125 C25.48828125 0.5253125 25.48828125 0.8553125 25.48828125 1.1953125 C14.92828125 1.1953125 4.36828125 1.1953125 -6.51171875 1.1953125 C-6.51171875 2.5153125 -6.51171875 3.8353125 -6.51171875 5.1953125 C-7.50171875 5.1953125 -8.49171875 5.1953125 -9.51171875 5.1953125 C-9.18171875 6.1853125 -8.85171875 7.1753125 -8.51171875 8.1953125 C-9.50171875 7.8653125 -10.49171875 7.5353125 -11.51171875 7.1953125 C-11.19921875 4.8203125 -11.19921875 4.8203125 -10.51171875 2.1953125 C-6.86867011 -0.23338659 -4.20449536 -0.06144425 0 0 Z " fill="#67906C" transform="translate(109.51171875,144.8046875)"/>
<path d="M0 0 C2.8023603 2.38632362 3.69868887 4.48422708 4.6875 8 C4.93886719 8.86625 5.19023437 9.7325 5.44921875 10.625 C6.35032533 14.51062269 5.8844562 16.58442314 4 20 C0.54576599 13.54208424 0.31558081 7.23659445 0 0 Z " fill="#4F8B5D" transform="translate(355,284)"/>
<path d="M0 0 C5.41538462 -0.36923077 5.41538462 -0.36923077 8.375 1.5 C8.91125 1.995 9.4475 2.49 10 3 C9.67 3.99 9.34 4.98 9 6 C6.69 6.33 4.38 6.66 2 7 C1.67 6.01 1.34 5.02 1 4 C0.34 3.67 -0.32 3.34 -1 3 C-0.67 2.01 -0.34 1.02 0 0 Z " fill="#2F7D3D" transform="translate(338,276)"/>
<path d="M0 0 C0.58007812 0.13277344 1.16015625 0.26554687 1.7578125 0.40234375 C6.15770982 1.39704001 10.53894158 2.31368332 15 3 C15 3.66 15 4.32 15 5 C14.27554688 4.96519531 13.55109375 4.93039062 12.8046875 4.89453125 C6.99655674 4.73190359 3.08653801 4.86982276 -2 8 C-2.66 8 -3.32 8 -4 8 C-3.67 7.01 -3.34 6.02 -3 5 C-2.01 5 -1.02 5 0 5 C-0.33 4.01 -0.66 3.02 -1 2 C-0.67 1.34 -0.34 0.68 0 0 Z " fill="#4D8558" transform="translate(172,278)"/>
<path d="M0 0 C1.35398055 0.6236657 2.69506876 1.27932207 4 2 C4 2.66 4 3.32 4 4 C3.34 4 2.68 4 2 4 C2 4.66 2 5.32 2 6 C0 5 -2 4 -4 3 C-5.53668865 2.77532169 -7.07968054 2.59203195 -8.625 2.4375 C-9.44226563 2.35371094 -10.25953125 2.26992188 -11.1015625 2.18359375 C-11.72804687 2.12300781 -12.35453125 2.06242187 -13 2 C-9.23162953 -2.09605486 -4.98892198 -1.16818067 0 0 Z " fill="#498455" transform="translate(188,271)"/>
<path d="M0 0 C2 1 2 1 3 3 C1.35 3 -0.3 3 -2 3 C-1.67 3.99 -1.34 4.98 -1 6 C-3.00462519 7.07390635 -4.77013808 7.94971771 -7 8.4375 C-9.47169467 9.13266413 -11.03142628 10.3829573 -13 12 C-13.66 11.67 -14.32 11.34 -15 11 C-9.25 6 -9.25 6 -7 6 C-7 5.34 -7 4.68 -7 4 C-1.7265625 0.77734375 -1.7265625 0.77734375 0 0 Z " fill="#5E9565" transform="translate(152,212)"/>
<path d="M0 0 C7.42686315 -0.10331031 14.63512596 0.00137301 22 1 C22 1.66 22 2.32 22 3 C23.32 3 24.64 3 26 3 C26 3.66 26 4.32 26 5 C24.1128125 4.5359375 24.1128125 4.5359375 22.1875 4.0625 C14.54598691 2.36572308 6.81421546 1.82635077 -1 2 C-0.67 1.34 -0.34 0.68 0 0 Z " fill="#6CA373" transform="translate(170,267)"/>
<path d="M0 0 C1.79199219 0.36303711 1.79199219 0.36303711 4 1 C4.69512695 1.18892822 5.39025391 1.37785645 6.10644531 1.57250977 C6.83959961 1.77674561 7.57275391 1.98098145 8.328125 2.19140625 C9.12734375 2.41376953 9.9265625 2.63613281 10.75 2.86523438 C11.575 3.09533203 12.4 3.32542969 13.25 3.5625 C14.09046875 3.79646484 14.9309375 4.03042969 15.796875 4.27148438 C17.86471337 4.84718938 19.93237412 5.42353229 22 6 C22 6.33 22 6.66 22 7 C11.44191344 7.3690205 11.44191344 7.3690205 7 5 C7 4.34 7 3.68 7 3 C6.05125 3.04125 5.1025 3.0825 4.125 3.125 C1 3 1 3 -1 1 C-0.67 0.67 -0.34 0.34 0 0 Z " fill="#73A378" transform="translate(319,225)"/>
<path d="M0 0 C0.66022156 0.02361099 1.32044312 0.04722198 2.00067139 0.07154846 C4.099644 0.14783435 6.19821449 0.23200778 8.296875 0.31640625 C9.72393897 0.36966215 11.15102228 0.42240229 12.578125 0.47460938 C16.06795233 0.60340124 19.55746298 0.73926644 23.046875 0.87890625 C23.046875 1.20890625 23.046875 1.53890625 23.046875 1.87890625 C22.22485596 1.9039624 21.40283691 1.92901855 20.5559082 1.95483398 C16.82358126 2.0710328 13.09149183 2.1936513 9.359375 2.31640625 C8.06580078 2.35572266 6.77222656 2.39503906 5.43945312 2.43554688 C4.19228516 2.47744141 2.94511719 2.51933594 1.66015625 2.5625 C-0.06013794 2.61748657 -0.06013794 2.61748657 -1.81518555 2.67358398 C-4.62305778 2.85730923 -7.21538314 3.24884445 -9.953125 3.87890625 C-10.283125 2.88890625 -10.613125 1.89890625 -10.953125 0.87890625 C-7.25494167 -0.32017721 -3.8609465 -0.14723949 0 0 Z " fill="#66916B" transform="translate(111.953125,170.12109375)"/>
<path d="M0 0 C0 0.66 0 1.32 0 2 C1.65 2 3.3 2 5 2 C5 2.33 5 2.66 5 3 C1.70840684 3.05790353 -1.58305603 3.09356261 -4.875 3.125 C-6.28072266 3.15013672 -6.28072266 3.15013672 -7.71484375 3.17578125 C-9.05869141 3.18544922 -9.05869141 3.18544922 -10.4296875 3.1953125 C-11.25710449 3.20578613 -12.08452148 3.21625977 -12.93701172 3.22705078 C-15 3 -15 3 -17 1 C-11.29309366 0.00749455 -5.78591511 -0.10477512 0 0 Z " fill="#85AE8A" transform="translate(244,305)"/>
<path d="M0 0 C2.1875 0.3125 2.1875 0.3125 4 1 C4 5 4 5 3 8 C1.35 8.33 -0.3 8.66 -2 9 C-2.5534764 6.92446352 -3 5.15634036 -3 3 C-1.75 1.3125 -1.75 1.3125 0 0 Z " fill="#327C3C" transform="translate(316,276)"/>
<path d="M0 0 C0.66 0.33 1.32 0.66 2 1 C1.105919 6.61993769 1.105919 6.61993769 0.46875 8.90625 C-0.05600175 11.25014114 -0.09777879 13.35104246 -0.0625 15.75 C-0.05347656 16.54921875 -0.04445313 17.3484375 -0.03515625 18.171875 C-0.02355469 18.77515625 -0.01195312 19.3784375 0 20 C-0.66 20 -1.32 20 -2 20 C-2.22134176 17.87631556 -2.42670007 15.75095976 -2.625 13.625 C-2.74101562 12.44164062 -2.85703125 11.25828125 -2.9765625 10.0390625 C-2.98429687 9.03617187 -2.99203125 8.03328125 -3 7 C-2.34 6.34 -1.68 5.68 -1 5 C-0.35232207 2.42938689 -0.35232207 2.42938689 0 0 Z " fill="#4C8056" transform="translate(313,286)"/>
<path d="M0 0 C0.99 0 1.98 0 3 0 C2.67 0.99 2.34 1.98 2 3 C1.34 3 0.68 3 0 3 C0 2.01 0 1.02 0 0 Z M-0.25 3.25 C1 5 1 5 1 8 C-1.31 8 -3.62 8 -6 8 C-6 6.35 -6 4.7 -6 3 C-2.47297297 1.66216216 -2.47297297 1.66216216 -0.25 3.25 Z " fill="#378A41" transform="translate(250,213)"/>
<path d="M0 0 C-2.87530081 0.9584336 -4.29049931 1.06656387 -7.23046875 0.87890625 C-8.03291016 0.83056641 -8.83535156 0.78222656 -9.66210938 0.73242188 C-10.91217773 0.64831055 -10.91217773 0.64831055 -12.1875 0.5625 C-13.4549707 0.48418945 -13.4549707 0.48418945 -14.74804688 0.40429688 C-16.83236299 0.27476311 -18.91623182 0.13806823 -21 0 C-20 -2 -20 -2 -18.20703125 -2.609375 C-11.38760577 -3.81635296 -6.15021913 -3.14053743 0 0 Z " fill="#6E9879" transform="translate(342,273)"/>
<path d="M0 0 C0.66 1.32 1.32 2.64 2 4 C1.01 4.33 0.02 4.66 -1 5 C-1 5.99 -1 6.98 -1 8 C-1.66 8 -2.32 8 -3 8 C-3 8.66 -3 9.32 -3 10 C-3.66 10 -4.32 10 -5 10 C-5 12.97 -5 15.94 -5 19 C-5.33 19 -5.66 19 -6 19 C-6.6060575 12.89453189 -6.84926594 8.34546039 -3 3.3125 C-2.02495646 2.18623443 -1.03319469 1.07316949 0 0 Z " fill="#639A69" transform="translate(129,231)"/>
<path d="M0 0 C2 4 2 4 2 8 C2.66 8.33 3.32 8.66 4 9 C4 9.66 4 10.32 4 11 C5.98 11.66 7.96 12.32 10 13 C10 13.33 10 13.66 10 14 C6.7 14 3.4 14 0 14 C0 9.38 0 4.76 0 0 Z " fill="#83AE89" transform="translate(209,294)"/>
<path d="M0 0 C0 0.99 0 1.98 0 3 C1.98 3 3.96 3 6 3 C6.66 4.32 7.32 5.64 8 7 C4.8035914 8.06546953 2.34252724 8.07427838 -1 8 C-1 7.01 -1 6.02 -1 5 C-1.99 5.33 -2.98 5.66 -4 6 C-4 5.34 -4 4.68 -4 4 C-3.34 4 -2.68 4 -2 4 C-1.34 2.68 -0.68 1.36 0 0 Z " fill="#559C5F" transform="translate(134,225)"/>
<path d="M0 0 C0.53625 0.28875 1.0725 0.5775 1.625 0.875 C4.35280484 2.16711808 7.12612718 3.08558592 10 4 C7.25 8.875 7.25 8.875 5 10 C2 4.25 2 4.25 2 2 C1.34 2 0.68 2 0 2 C0 1.34 0 0.68 0 0 Z " fill="#519257" transform="translate(205,278)"/>
<path d="M0 0 C0.99 1.32 1.98 2.64 3 4 C3.99 4.33 4.98 4.66 6 5 C5.01 6.98 4.02 8.96 3 11 C1.68 11 0.36 11 -1 11 C-0.67 7.37 -0.34 3.74 0 0 Z " fill="#377B42" transform="translate(153,288)"/>
<path d="M0 0 C0.99 0.33 1.98 0.66 3 1 C3.33 2.98 3.66 4.96 4 7 C2.02 7.99 2.02 7.99 0 9 C-1.3950848 6.70221327 -2.07438619 5.5207033 -1.6875 2.8125 C-1 1 -1 1 0 0 Z " fill="#307E3B" transform="translate(158,306)"/>
<path d="M0 0 C1.9375 0.1875 1.9375 0.1875 4 1 C5.3125 2.875 5.3125 2.875 6 5 C5.67 5.99 5.34 6.98 5 8 C3.125 7.875 3.125 7.875 1 7 C-0.25 3.9375 -0.25 3.9375 -1 1 C-0.67 0.67 -0.34 0.34 0 0 Z " fill="#317F3A" transform="translate(151,303)"/>
<path d="M0 0 C0.66 0.33 1.32 0.66 2 1 C1.67 2.32 1.34 3.64 1 5 C-0.65 5 -2.3 5 -4 5 C-4.0825 5.78375 -4.165 6.5675 -4.25 7.375 C-5 10 -5 10 -7.0625 11.3125 C-8.0215625 11.6528125 -8.0215625 11.6528125 -9 12 C-7.87548273 9.0280615 -6.77706209 6.66559313 -5 4 C-4.34 4 -3.68 4 -3 4 C-3 3.34 -3 2.68 -3 2 C-2.01 1.34 -1.02 0.68 0 0 Z " fill="#619668" transform="translate(163,276)"/>
<path d="M0 0 C0.33 0 0.66 0 1 0 C1 2.64 1 5.28 1 8 C1.66 8.33 2.32 8.66 3 9 C2.34 10.32 1.68 11.64 1 13 C-0.65 13 -2.3 13 -4 13 C-3.525625 11.783125 -3.05125 10.56625 -2.5625 9.3125 C-1.40075962 6.22731209 -0.51074813 3.26878802 0 0 Z " fill="#619C68" transform="translate(305,191)"/>
<path d="M0 0 C1.04449911 3.13349732 0.93423645 3.98968256 0 7 C1.65 7.33 3.3 7.66 5 8 C4.67 9.32 4.34 10.64 4 12 C4.66 12.33 5.32 12.66 6 13 C3.61435923 12.42415568 1.33317216 11.77772405 -1 11 C-1.0270043 9.54176788 -1.04639787 8.08339325 -1.0625 6.625 C-1.07410156 5.81289063 -1.08570313 5.00078125 -1.09765625 4.1640625 C-1 2 -1 2 0 0 Z " fill="#578C5F" transform="translate(152,292)"/>
<path d="M0 0 C0.66 0.33 1.32 0.66 2 1 C2 2.65 2 4.3 2 6 C3.32 6.66 4.64 7.32 6 8 C5.01 8.33 4.02 8.66 3 9 C3 9.66 3 10.32 3 11 C2.01 11.33 1.02 11.66 0 12 C-0.19401633 10.18818595 -0.38004375 8.37551468 -0.5625 6.5625 C-0.66691406 5.55316406 -0.77132813 4.54382813 -0.87890625 3.50390625 C-0.91886719 2.67761719 -0.95882813 1.85132813 -1 1 C-0.67 0.67 -0.34 0.34 0 0 Z " fill="#4A8354" transform="translate(349,292)"/>
<path d="M0 0 C0.99 0 1.98 0 3 0 C3 0.66 3 1.32 3 2 C2.34 2 1.68 2 1 2 C1.99 3.485 1.99 3.485 3 5 C3.66 4.01 4.32 3.02 5 2 C5.625 3.875 5.625 3.875 6 6 C5.34 6.66 4.68 7.32 4 8 C2 7.9375 2 7.9375 0 7 C-1.25 4.4375 -1.25 4.4375 -2 2 C-1.34 1.34 -0.68 0.68 0 0 Z " fill="#40934B" transform="translate(302,235)"/>
<path d="M0 0 C2.31 0 4.62 0 7 0 C6.071875 0.7734375 6.071875 0.7734375 5.125 1.5625 C2.23222912 4.88067836 1 8.57351643 1 13 C0.01 12.67 -0.98 12.34 -2 12 C-2 10.35 -2 8.7 -2 7 C-1.01 7 -0.02 7 1 7 C0.67 4.69 0.34 2.38 0 0 Z " fill="#619B69" transform="translate(181,206)"/>
<path d="M0 0 C8.25 0.33 16.5 0.66 25 1 C25 1.33 25 1.66 25 2 C21.41673516 2.16816121 17.83337798 2.33426877 14.25 2.5 C13.23421875 2.54769531 12.2184375 2.59539062 11.171875 2.64453125 C10.1921875 2.68964844 9.2125 2.73476562 8.203125 2.78125 C7.30239258 2.82314453 6.40166016 2.86503906 5.47363281 2.90820312 C3.31702276 2.98823524 1.15809454 3 -1 3 C-0.67 2.01 -0.34 1.02 0 0 Z " fill="#488850" transform="translate(188,202)"/>
<path d="M0 0 C-4.84060277 3.06242216 -8.29290936 4.53411505 -14 5 C-13.67 4.01 -13.34 3.02 -13 2 C-10.05610218 0.82244087 -9.10046087 0.96651304 -6 2 C-6 1.34 -6 0.68 -6 0 C-3.50907189 -1.24546405 -2.58919267 -0.7767578 0 0 Z " fill="#65926E" transform="translate(349,325)"/>
<path d="M0 0 C0 2.66420516 -0.09162237 4.52260646 -1 7 C-3.88211302 7.96070434 -5.69850044 8.10581883 -8.6875 8.0625 C-9.89986328 8.04896484 -9.89986328 8.04896484 -11.13671875 8.03515625 C-12.05904297 8.01775391 -12.05904297 8.01775391 -13 8 C-13 7.67 -13 7.34 -13 7 C-12.39671875 6.82984375 -11.7934375 6.6596875 -11.171875 6.484375 C-6.48936628 5.06451752 -3.14688851 3.96781594 0 0 Z " fill="#68956F" transform="translate(345,312)"/>
<path d="M0 0 C0.33 0 0.66 0 1 0 C1.38281159 5.23175837 0.21854707 8.37802694 -2 13 C-2.66 12.67 -3.32 12.34 -4 12 C-3.34 8.7 -2.68 5.4 -2 2 C-1.34 2 -0.68 2 0 2 C0 1.34 0 0.68 0 0 Z " fill="#539360" transform="translate(315,193)"/>
<path d="M0 0 C0.99 0.33 1.98 0.66 3 1 C2.58578031 5.83256305 0.53586014 7.82679218 -3 11 C-2.69217504 9.35328588 -2.37860766 7.70764424 -2.0625 6.0625 C-1.88847656 5.14597656 -1.71445313 4.22945312 -1.53515625 3.28515625 C-1 1 -1 1 0 0 Z " fill="#5F9A66" transform="translate(167,170)"/>
<path d="M0 0 C1.65 0 3.3 0 5 0 C5 0.66 5 1.32 5 2 C4.34 2 3.68 2 3 2 C3 2.66 3 3.32 3 4 C2.34 4 1.68 4 1 4 C0.71125 4.78375 0.4225 5.5675 0.125 6.375 C-1 9 -1 9 -3 11 C-3.33 10.01 -3.66 9.02 -4 8 C-3.34 8 -2.68 8 -2 8 C-2 6.68 -2 5.36 -2 4 C-1.34 4 -0.68 4 0 4 C0 2.68 0 1.36 0 0 Z " fill="#6EA176" transform="translate(305,276)"/>
<path d="M0 0 C1.32 0.99 2.64 1.98 4 3 C3.0022242 5.99332739 2.2477975 6.94766315 0 9 C-0.66 8.67 -1.32 8.34 -2 8 C-2 7.34 -2 6.68 -2 6 C-2.66 5.67 -3.32 5.34 -4 5 C-3.01 4.34 -2.02 3.68 -1 3 C-0.67 2.01 -0.34 1.02 0 0 Z " fill="#40924B" transform="translate(134,232)"/>
<path d="M0 0 C2.625 0.375 2.625 0.375 5 1 C5 1.99 5 2.98 5 4 C5.66 4 6.32 4 7 4 C7.33 3.34 7.66 2.68 8 2 C8.66 3.32 9.32 4.64 10 6 C6.76344816 6 5.21247361 5.3449153 2.3125 4 C1.50425781 3.62875 0.69601562 3.2575 -0.13671875 2.875 C-0.75160156 2.58625 -1.36648438 2.2975 -2 2 C-1.34 1.34 -0.68 0.68 0 0 Z " fill="#629A6A" transform="translate(341,268)"/>
<path d="M0 0 C2.31 0 4.62 0 7 0 C7.66666667 2.66666667 8.33333333 5.33333333 9 8 C6.96166576 6.7260411 4.96147874 5.38938077 3 4 C3 3.34 3 2.68 3 2 C2.01 1.67 1.02 1.34 0 1 C0 0.67 0 0.34 0 0 Z " fill="#669C6E" transform="translate(125,299)"/>
<path d="M0 0 C1.98 0 3.96 0 6 0 C6.33 1.65 6.66 3.3 7 5 C7.99 5.33 8.98 5.66 10 6 C9.67 6.99 9.34 7.98 9 9 C8.67 8.34 8.34 7.68 8 7 C7.34 7 6.68 7 6 7 C4.62517293 5.36739286 3.29352333 3.69774938 2 2 C1.34 1.34 0.68 0.68 0 0 Z " fill="#639D6B" transform="translate(350,275)"/>
<path d="M0 0 C0.99 0.33 1.98 0.66 3 1 C2.01 1 1.02 1 0 1 C0 0.67 0 0.34 0 0 Z M-4 1 C-2.0625 1.3125 -2.0625 1.3125 0 2 C0.33 2.99 0.66 3.98 1 5 C-3.75 9 -3.75 9 -6 9 C-6 7 -6 7 -4.5 5.375 C-4.005 4.92125 -3.51 4.4675 -3 4 C-3.33 3.01 -3.66 2.02 -4 1 Z " fill="#41934B" transform="translate(315,228)"/>
<path d="M0 0 C-0.556875 0.268125 -1.11375 0.53625 -1.6875 0.8125 C-4.07876612 1.97086497 -4.07876612 1.97086497 -6.375 3.6875 C-9.68409942 5.34204971 -11.48303994 4.89968746 -15 4 C-13.66666667 3.33333333 -12.33333333 2.66666667 -11 2 C-10.030625 1.443125 -9.06125 0.88625 -8.0625 0.3125 C-4.72434517 -1.11813778 -3.38946491 -1.09659159 0 0 Z " fill="#5E9B67" transform="translate(177,204)"/>
<path d="M0 0 C0.99 0.33 1.98 0.66 3 1 C2.67 1.66 2.34 2.32 2 3 C-1.42232972 4.14077657 -4.08673217 4.09815117 -7.6875 4.0625 C-9.45673828 4.04896484 -9.45673828 4.04896484 -11.26171875 4.03515625 C-12.16535156 4.02355469 -13.06898438 4.01195312 -14 4 C-10.4342011 2.03266267 -8.06058324 2 -4 2 C-2.65909241 1.34870203 -1.32407669 0.68486725 0 0 Z " fill="#4A8F59" transform="translate(160,180)"/>
<path d="M0 0 C2 1 2 1 3.125 3.5625 C4.14837318 7.58289462 4.14258282 10.86509813 4 15 C1.31333861 9.8185816 -0.27625249 5.93942843 0 0 Z " fill="#619969" transform="translate(312,177)"/>
<path d="M0 0 C0.99 0 1.98 0 3 0 C3.66 1.65 4.32 3.3 5 5 C4.34 5 3.68 5 3 5 C2.67 5.99 2.34 6.98 2 8 C0.4375 6.25 0.4375 6.25 -1 4 C-0.6875 1.75 -0.6875 1.75 0 0 Z " fill="#468750" transform="translate(309,316)"/>
<path d="M0 0 C4.455 1.98 4.455 1.98 9 4 C9 4.66 9 5.32 9 6 C6.03 6 3.06 6 0 6 C0.66 5.01 1.32 4.02 2 3 C1.34 2.67 0.68 2.34 0 2 C0 1.34 0 0.68 0 0 Z " fill="#6D9A72" transform="translate(273,198)"/>
<path d="M0 0 C6.93 0.495 6.93 0.495 14 1 C10.74558213 3.16961191 8.75865122 4.27920193 4.859375 3.66015625 C1.9296875 2.83007812 1.9296875 2.83007812 -1 2 C-0.67 1.34 -0.34 0.68 0 0 Z " fill="#64A16C" transform="translate(227,185)"/>
<path d="M0 0 C1.32 0.99 2.64 1.98 4 3 C3.01 3.99 2.02 4.98 1 6 C-1.475 5.01 -1.475 5.01 -4 4 C-2.68 2.68 -1.36 1.36 0 0 Z " fill="#327C3B" transform="translate(167,317)"/>
<path d="M0 0 C0.33 0 0.66 0 1 0 C1.12375 1.175625 1.2475 2.35125 1.375 3.5625 C1.86435935 7.54120426 2.8055205 11.17766559 4 15 C2.68 14.67 1.36 14.34 0 14 C0 9.38 0 4.76 0 0 Z " fill="#498D54" transform="translate(212,291)"/>
<path d="M0 0 C0.99 0 1.98 0 3 0 C4.32 2.64 5.64 5.28 7 8 C5.02 7.34 3.04 6.68 1 6 C0.67 4.02 0.34 2.04 0 0 Z " fill="#63966A" transform="translate(161,307)"/>
<path d="M0 0 C1.53166168 4.08443115 0.63081652 7.79455657 0 12 C-0.33 12 -0.66 12 -1 12 C-1 9.69 -1 7.38 -1 5 C-1.99 5.33 -2.98 5.66 -4 6 C-3.6875 4.125 -3.6875 4.125 -3 2 C-2.01 1.34 -1.02 0.68 0 0 Z " fill="#5F9368" transform="translate(162,293)"/>
<path d="M0 0 C1.65 0 3.3 0 5 0 C4.01 0.495 4.01 0.495 3 1 C3 1.66 3 2.32 3 3 C3.99 3.33 4.98 3.66 6 4 C5.67 4.99 5.34 5.98 5 7 C1.535 5.02 1.535 5.02 -2 3 C-1.34 2.67 -0.68 2.34 0 2 C0 1.34 0 0.68 0 0 Z " fill="#52895F" transform="translate(189,281)"/>
<path d="M0 0 C4.83628305 0.99043705 9.47618873 1.95698846 14 4 C14 4.33 14 4.66 14 5 C11.69 5 9.38 5 7 5 C6.67 4.01 6.34 3.02 6 2 C4.35 2 2.7 2 1 2 C0.67 1.34 0.34 0.68 0 0 Z " fill="#699C70" transform="translate(242,187)"/>
<path d="M0 0 C-0.33 0.99 -0.66 1.98 -1 3 C-4.63 3.33 -8.26 3.66 -12 4 C-10.720327 1.44065399 -9.75798964 1.3010767 -7.125 0.3125 C-6.07699219 -0.09548828 -6.07699219 -0.09548828 -5.0078125 -0.51171875 C-3 -1 -3 -1 0 0 Z " fill="#6AA276" transform="translate(216,188)"/>
<path d="M0 0 C0.66 0.33 1.32 0.66 2 1 C1.34 4.96 0.68 8.92 0 13 C0.66 13.33 1.32 13.66 2 14 C1.01 14 0.02 14 -1 14 C-2.51708428 4.58997722 -2.51708428 4.58997722 0 0 Z " fill="#81AA84" transform="translate(149,290)"/>
<path d="M0 0 C0.66 1.32 1.32 2.64 2 4 C2.66 4 3.32 4 4 4 C3.67 4.99 3.34 5.98 3 7 C1.35 7.33 -0.3 7.66 -2 8 C-2.33 6.68 -2.66 5.36 -3 4 C-2.01 3.67 -1.02 3.34 0 3 C0 2.01 0 1.02 0 0 Z " fill="#32793D" transform="translate(202,281)"/>
<path d="M0 0 C3.93673644 1.31224548 6.22719294 2.91910327 9 6 C4.545 5.01 4.545 5.01 0 4 C0 2.68 0 1.36 0 0 Z " fill="#60996B" transform="translate(382,248)"/>
<path d="M0 0 C0.93065133 2.60582371 1.14917407 3.64198224 0.0625 6.25 C-0.4634375 7.11625 -0.4634375 7.11625 -1 8 C-3.475 7.01 -3.475 7.01 -6 6 C-5.67 4.68 -5.34 3.36 -5 2 C-4.67 2.66 -4.34 3.32 -4 4 C-3.01 4.33 -2.02 4.66 -1 5 C-0.67 3.35 -0.34 1.7 0 0 Z " fill="#2F783C" transform="translate(361,299)"/>
<path d="M0 0 C1.32 0.33 2.64 0.66 4 1 C3.34 1 2.68 1 2 1 C1.7525 1.598125 1.505 2.19625 1.25 2.8125 C-0.16370012 5.28647521 -1.65055383 6.43370255 -4 8 C-3.67 6.35 -3.34 4.7 -3 3 C-2.01 2.67 -1.02 2.34 0 2 C0 1.34 0 0.68 0 0 Z " fill="#66996C" transform="translate(308,208)"/>
<path d="M0 0 C0.66 0.33 1.32 0.66 2 1 C1.4225 1.2475 0.845 1.495 0.25 1.75 C-2.3002997 3.16683317 -4.01785701 4.87627537 -6 7 C-6.99 6.67 -7.98 6.34 -9 6 C-3.375 1.125 -3.375 1.125 0 0 Z " fill="#749F7B" transform="translate(319,273)"/>
<path d="M0 0 C3.375 0.6875 3.375 0.6875 7 2 C8.4375 4.625 8.4375 4.625 9 7 C8.34 7 7.68 7 7 7 C7 6.34 7 5.68 7 5 C6.401875 4.731875 5.80375 4.46375 5.1875 4.1875 C3.02775192 3.01506533 1.64209744 1.80630718 0 0 Z " fill="#69A277" transform="translate(293,172)"/>
<path d="M0 0 C0.99 0 1.98 0 3 0 C3 1.32 3 2.64 3 4 C2.01 4 1.02 4 0 4 C0.33 4.99 0.66 5.98 1 7 C0.01 6.67 -0.98 6.34 -2 6 C-1.125 1.125 -1.125 1.125 0 0 Z " fill="#5B9362" transform="translate(100,146)"/>
<path d="M0 0 C1.0828125 0.37125 1.0828125 0.37125 2.1875 0.75 C-0.69285092 2.99027294 -3.66116512 4.91172132 -6.8125 6.75 C-7.1425 5.76 -7.4725 4.77 -7.8125 3.75 C-3.50480769 -0.31153846 -3.50480769 -0.31153846 0 0 Z " fill="#72A77A" transform="translate(317.8125,269.25)"/>
<path d="M0 0 C2.97 0 5.94 0 9 0 C8.67 1.65 8.34 3.3 8 5 C6.68 4.67 5.36 4.34 4 4 C4.66 3.01 5.32 2.02 6 1 C5.38125 1.20625 4.7625 1.4125 4.125 1.625 C3.42375 1.74875 2.7225 1.8725 2 2 C1.34 1.34 0.68 0.68 0 0 Z " fill="#41914A" transform="translate(205,161)"/>
<path d="M0 0 C1.65 0 3.3 0 5 0 C6 3 6 3 6 6 C2.26360784 4.75453595 1.81243487 3.36595047 0 0 Z " fill="#2E7A3B" transform="translate(309,313)"/>
<path d="M0 0 C1.46015291 0.28241641 2.91809793 0.57626614 4.375 0.875 C5.18710937 1.03742188 5.99921875 1.19984375 6.8359375 1.3671875 C9 2 9 2 11 4 C8 5 8 5 5.95703125 4.22265625 C5.24933594 3.83980469 4.54164063 3.45695312 3.8125 3.0625 C3.09707031 2.68222656 2.38164062 2.30195313 1.64453125 1.91015625 C1.10183594 1.60980469 0.55914062 1.30945313 0 1 C0 0.67 0 0.34 0 0 Z " fill="#598C62" transform="translate(333,281)"/>
<path d="M0 0 C2 4 2 4 2 6 C2.66 6.33 3.32 6.66 4 7 C3.34 7 2.68 7 2 7 C2.33 8.32 2.66 9.64 3 11 C2.01 10.67 1.02 10.34 0 10 C0 6.7 0 3.4 0 0 Z " fill="#7FA683" transform="translate(191,212)"/>
<path d="M0 0 C0.99 0.495 0.99 0.495 2 1 C2 1.66 2 2.32 2 3 C2.66 3 3.32 3 4 3 C4.99 4.485 4.99 4.485 6 6 C5.67 6.99 5.34 7.98 5 9 C1.7457985 6.16569547 0.4793247 4.31392226 0 0 Z " fill="#79AA82" transform="translate(306,168)"/>
<path d="M0 0 C0.66 0.66 1.32 1.32 2 2 C1.625 4.125 1.625 4.125 1 6 C-0.65 5.67 -2.3 5.34 -4 5 C-2.68 3.35 -1.36 1.7 0 0 Z " fill="#54945A" transform="translate(291,166)"/>
<path d="M0 0 C2.46800047 1.15173355 4.04783565 2.04783565 6 4 C5.67 4.99 5.34 5.98 5 7 C4.34 7 3.68 7 3 7 C3 6.01 3 5.02 3 4 C2.34 4 1.68 4 1 4 C0.67 2.68 0.34 1.36 0 0 Z " fill="#648D6C" transform="translate(155,315)"/>
<path d="M0 0 C0.66 0.99 1.32 1.98 2 3 C0.71034824 4.37562854 -0.62689293 5.70766393 -2 7 C-2.66 7 -3.32 7 -4 7 C-4 7.66 -4 8.32 -4 9 C-5.32 8.67 -6.64 8.34 -8 8 C-7.01 8 -6.02 8 -5 8 C-5 7.34 -5 6.68 -5 6 C-4.34 6 -3.68 6 -3 6 C-2.690625 5.38125 -2.38125 4.7625 -2.0625 4.125 C-1.375 2.75 -0.6875 1.375 0 0 Z " fill="#70A177" transform="translate(197,309)"/>
<path d="M0 0 C1.65 0.33 3.3 0.66 5 1 C4.67 2.65 4.34 4.3 4 6 C3.67 5.34 3.34 4.68 3 4 C0.98330173 2.86649466 0.98330173 2.86649466 -1 2 C-0.67 1.34 -0.34 0.68 0 0 Z " fill="#538958" transform="translate(355,306)"/>
<path d="M0 0 C0.99 0.33 1.98 0.66 3 1 C3 1.66 3 2.32 3 3 C2.34 3 1.68 3 1 3 C1 6.3 1 9.6 1 13 C0.34 12.67 -0.32 12.34 -1 12 C-0.67 8.04 -0.34 4.08 0 0 Z " fill="#67916E" transform="translate(199,295)"/>
<path d="M0 0 C1.98 0.495 1.98 0.495 4 1 C4 1.66 4 2.32 4 3 C3.34 3 2.68 3 2 3 C1.34 4.65 0.68 6.3 0 8 C-0.98120464 4.94736336 -0.98120464 3.05263664 0 0 Z " fill="#5A8B63" transform="translate(164,285)"/>
<path d="M0 0 C0.33 1.32 0.66 2.64 1 4 C-0.65 4.33 -2.3 4.66 -4 5 C-4.33 4.01 -4.66 3.02 -5 2 C-4.360625 1.855625 -3.72125 1.71125 -3.0625 1.5625 C-1.02454854 1.18992819 -1.02454854 1.18992819 0 0 Z " fill="#40924A" transform="translate(285,259)"/>
<path d="M0 0 C0 0.99 0 1.98 0 3 C-3.375 3.125 -3.375 3.125 -7 3 C-7.66 2.34 -8.32 1.68 -9 1 C-5.94152152 0.45627049 -3.11227195 0 0 0 Z " fill="#3C8046" transform="translate(135,150)"/>
<path d="M0 0 C1.65 0.33 3.3 0.66 5 1 C0.375 5 0.375 5 -3 5 C-2.67 4.01 -2.34 3.02 -2 2 C-1.34 2 -0.68 2 0 2 C0 1.34 0 0.68 0 0 Z " fill="#4F815A" transform="translate(319,282)"/>
<path d="M0 0 C3.79588866 0.54226981 5.47211993 2.20127563 8 5 C7.01 5.495 7.01 5.495 6 6 C4 4.625 4 4.625 2 3 C2 2.34 2 1.68 2 1 C1.34 0.67 0.68 0.34 0 0 Z " fill="#6C9475" transform="translate(342,274)"/>
<path d="M0 0 C3.93673644 1.31224548 6.22719294 2.91910327 9 6 C8.01 6.495 8.01 6.495 7 7 C6.67 6.34 6.34 5.68 6 5 C5.175 4.690625 4.35 4.38125 3.5 4.0625 C2.675 3.711875 1.85 3.36125 1 3 C0.67 2.01 0.34 1.02 0 0 Z " fill="#75A77D" transform="translate(296,162)"/>
<path d="M0 0 C0 0.33 0 0.66 0 1 C-1.4800841 0.88637738 -2.95910074 0.75877092 -4.4375 0.625 C-5.26121094 0.55539062 -6.08492187 0.48578125 -6.93359375 0.4140625 C-7.61550781 0.27742188 -8.29742187 0.14078125 -9 0 C-9.33 -0.66 -9.66 -1.32 -10 -2 C-5.82412255 -3.39195915 -3.86525224 -1.82323219 0 0 Z " fill="#598761" transform="translate(178,329)"/>
<path d="M0 0 C0.99 0.99 1.98 1.98 3 3 C2.34 3 1.68 3 1 3 C1.33 3.99 1.66 4.98 2 6 C0.68 6 -0.64 6 -2 6 C-1.34 4.02 -0.68 2.04 0 0 Z " fill="#548E5E" transform="translate(348,306)"/>
<path d="M0 0 C1.32 0.33 2.64 0.66 4 1 C4 2.32 4 3.64 4 5 C3.01 5 2.02 5 1 5 C0.67 3.35 0.34 1.7 0 0 Z " fill="#497E51" transform="translate(151,305)"/>
<path d="M0 0 C2.31 0 4.62 0 7 0 C6.67 0.66 6.34 1.32 6 2 C3.67843403 2.40729228 1.3431213 2.74438677 -1 3 C-0.67 2.01 -0.34 1.02 0 0 Z " fill="#679A6F" transform="translate(378,301)"/>
<path d="M0 0 C1.32 0 2.64 0 4 0 C3.34 2.31 2.68 4.62 2 7 C1.34 6.67 0.68 6.34 0 6 C0 4.02 0 2.04 0 0 Z " fill="#739B78" transform="translate(358,297)"/>
<path d="M0 0 C0 0.66 0 1.32 0 2 C-4.455 2.495 -4.455 2.495 -9 3 C-5.92807025 0.26939578 -4.09590633 -0.34132553 0 0 Z " fill="#699273" transform="translate(184,270)"/>
</svg>
